<svg xmlns="http://www.w3.org/2000/svg" viewBox="0 0 1320 940" width="1320" height="940">
  <defs>
    <marker id="arrowA" markerWidth="10" markerHeight="7" refX="9" refY="3.5" orient="auto">
      <polygon points="0 0, 10 3.5, 0 7" fill="#a855f7"/>
    </marker>
    <marker id="arrowB" markerWidth="10" markerHeight="7" refX="9" refY="3.5" orient="auto">
      <polygon points="0 0, 10 3.5, 0 7" fill="#22c55e"/>
    </marker>
    <marker id="arrowC" markerWidth="10" markerHeight="7" refX="9" refY="3.5" orient="auto">
      <polygon points="0 0, 10 3.5, 0 7" fill="#38bdf8"/>
    </marker>
    <marker id="arrowE" markerWidth="10" markerHeight="7" refX="9" refY="3.5" orient="auto">
      <polygon points="0 0, 10 3.5, 0 7" fill="#fb7185"/>
    </marker>
    <marker id="arrowF" markerWidth="10" markerHeight="7" refX="9" refY="3.5" orient="auto">
      <polygon points="0 0, 10 3.5, 0 7" fill="#f59e0b"/>
    </marker>
    <marker id="arrowG" markerWidth="10" markerHeight="7" refX="9" refY="3.5" orient="auto">
      <polygon points="0 0, 10 3.5, 0 7" fill="#f97316"/>
    </marker>
    <marker id="arrowH" markerWidth="10" markerHeight="7" refX="9" refY="3.5" orient="auto">
      <polygon points="0 0, 10 3.5, 0 7" fill="#94a3b8"/>
    </marker>
    <linearGradient id="terminalGradient" x1="0%" y1="0%" x2="100%" y2="100%">
      <stop offset="0%" stop-color="#0f0f1a"/>
      <stop offset="100%" stop-color="#1a1a2e"/>
    </linearGradient>
    <filter id="glowBlue" x="-30%" y="-30%" width="160%" height="160%">
      <feDropShadow dx="0" dy="0" stdDeviation="5" flood-color="#3b82f6" flood-opacity="0.65"/>
    </filter>
    <filter id="glowPurple" x="-30%" y="-30%" width="160%" height="160%">
      <feDropShadow dx="0" dy="0" stdDeviation="5" flood-color="#a855f7" flood-opacity="0.72"/>
    </filter>
    <filter id="glowGreen" x="-30%" y="-30%" width="160%" height="160%">
      <feDropShadow dx="0" dy="0" stdDeviation="5" flood-color="#22c55e" flood-opacity="0.62"/>
    </filter>
    <filter id="glowOrange" x="-30%" y="-30%" width="160%" height="160%">
      <feDropShadow dx="0" dy="0" stdDeviation="5" flood-color="#f97316" flood-opacity="0.62"/>
    </filter>
    <style>
    text { font-family: 'SF Mono', 'Fira Code', Menlo, 'Microsoft YaHei', 'SimHei', monospace; }
    .title { font-size: 30px; font-weight: 700; fill: #e2e8f0; }
    .subtitle { font-size: 14px; font-weight: 500; fill: #94a3b8; }
    .section { font-size: 13px; font-weight: 700; fill: #38bdf8; letter-spacing: 1.4px; }
    .section-sub { font-size: 12px; font-weight: 500; fill: #64748b; }
    .node-title { font-size: 18px; font-weight: 700; fill: #e2e8f0; }
    .node-sub { font-size: 12px; font-weight: 500; fill: #94a3b8; }
    .node-type { font-size: 12px; font-weight: 700; fill: #64748b; letter-spacing: 0.08em; }
    .arrow-label { font-size: 12px; font-weight: 600; fill: #cbd5e1; }
    .legend { font-size: 12px; font-weight: 500; fill: #94a3b8; }
    .footnote { font-size: 12px; font-weight: 500; fill: #64748b; }
    </style>
  </defs>
  <rect width="1320.0" height="940.0" fill="url(#terminalGradient)"/>
  <circle cx="20.0" cy="20" r="5.5" fill="#ef4444"/>
  <circle cx="38.0" cy="20" r="5.5" fill="#f59e0b"/>
  <circle cx="56.0" cy="20" r="5.5" fill="#10b981"/>
  <text x="660.0" y="24" text-anchor="middle" font-size="11.0" font-weight="600" fill="#64748b">INTERNAL AUTOMATION FLEET · EMAIL-TRIGGERED DOC PIPELINES</text>
  <text x="1292.0" y="24" text-anchor="end" font-size="11.0" font-weight="600" fill="#64748b">style-2-dark-terminal</text>
  <text x="660.0" y="56" text-anchor="middle" class="title">Internal Automation Fleet</text>
  <text x="660.0" y="82" text-anchor="middle" class="subtitle">Email-triggered document-validation and document-generation pipelines (systemd watcher fleet)</text>
  <rect x="36.0" y="100.0" width="1248.0" height="164.0" rx="16.0" fill="rgba(15,23,42,0.18)" stroke="#3b82f6" stroke-width="1.4" stroke-dasharray="7 6"/>
  <text x="54.0" y="124.0" class="section">ACCESS</text>
  <text x="54.0" y="144.0" class="section-sub">inbound trigger + same-thread reply</text>
  <rect x="36.0" y="288.0" width="1248.0" height="130.0" rx="16.0" fill="rgba(15,23,42,0.18)" stroke="#f97316" stroke-width="1.4" stroke-dasharray="7 6"/>
  <text x="54.0" y="312.0" class="section">ORCHESTRATION</text>
  <text x="54.0" y="332.0" class="section-sub">30s scheduler + cheap dispatcher</text>
  <rect x="36.0" y="442.0" width="1248.0" height="214.0" rx="16.0" fill="rgba(15,23,42,0.18)" stroke="#a855f7" stroke-width="1.4" stroke-dasharray="7 6"/>
  <text x="54.0" y="466.0" class="section">WORKERS</text>
  <text x="54.0" y="486.0" class="section-sub">detached per-thread claude -p</text>
  <rect x="36.0" y="680.0" width="1248.0" height="210.0" rx="16.0" fill="rgba(15,23,42,0.18)" stroke="#10b981" stroke-width="1.4" stroke-dasharray="7 6"/>
  <text x="54.0" y="704.0" class="section">FOUNDATION</text>
  <text x="54.0" y="724.0" class="section-sub">system-of-record + per-item FSM state</text>
  <path d="M 214.0,192.0 L 286.0,192.0" fill="none" stroke="#fb7185" stroke-width="2.3" marker-end="url(#arrowE)"/>
  <path d="M 510.0,192.0 L 588.0,192.0" fill="none" stroke="#38bdf8" stroke-width="2.3" marker-end="url(#arrowC)"/>
  <path d="M 486.0,353.0 L 567.6,353.0 L 567.6,354.0 L 588.0,354.0" fill="none" stroke="#a855f7" stroke-width="2.3" marker-end="url(#arrowA)"/>
  <path d="M 398.0,232.0 L 398.0,252.4 L 386.0,252.4 L 386.0,320.0" fill="none" stroke="#f59e0b" stroke-width="2.3" marker-end="url(#arrowF)" stroke-dasharray="6,4"/>
  <path d="M 693.0,390.0 L 693.0,410.4 L 676.0,410.4 L 676.0,468.0" fill="none" stroke="#a855f7" stroke-width="2.3" marker-end="url(#arrowA)"/>
  <path d="M 756.0,528.0 L 776.4,528.0 L 776.4,490.0 L 826.0,490.0" fill="none" stroke="#a855f7" stroke-width="2.3" marker-end="url(#arrowA)"/>
  <path d="M 756.0,528.0 L 786.0,528.0 L 786.0,557.0 L 826.0,557.0" fill="none" stroke="#a855f7" stroke-width="2.3" marker-end="url(#arrowA)"/>
  <path d="M 756.0,528.0 L 791.0,528.0 L 791.0,619.0 L 826.0,619.0" fill="none" stroke="#a855f7" stroke-width="2.3" marker-end="url(#arrowA)"/>
  <path d="M 1036.0,557.0 L 1056.4,557.0 L 1069.6,560.0 L 1090.0,560.0" fill="none" stroke="#fb7185" stroke-width="2.3" marker-end="url(#arrowE)"/>
  <path d="M 1036.0,619.0 L 1063.0,619.0 L 1063.0,560.0 L 1090.0,560.0" fill="none" stroke="#fb7185" stroke-width="2.3" marker-end="url(#arrowE)"/>
  <path d="M 931.0,520.0 L 931.0,668.0 L 406.0,668.0 L 406.0,706.0" fill="none" stroke="#fb7185" stroke-width="2.3" marker-end="url(#arrowE)"/>
  <path d="M 676.0,588.0 L 676.0,608.4 L 668.0,608.4 L 668.0,706.0" fill="none" stroke="#fb7185" stroke-width="2.3" marker-end="url(#arrowE)"/>
  <path d="M 1186.0,520.0 L 1186.0,192.0 L 1276.0,192.0" fill="none" stroke="#fb7185" stroke-width="2.3" marker-end="url(#arrowE)"/>
  <path d="M 406.0,822.0 L 406.0,862.0 L 988.0,862.0 L 988.0,764.0" fill="none" stroke="#38bdf8" stroke-width="2.3" marker-end="url(#arrowC)"/>
  <path d="M 988.0,764.0 L 988.0,838.0 L 1010.0,838.0" fill="none" stroke="#f59e0b" stroke-width="2.3" marker-end="url(#arrowF)" stroke-dasharray="6,4"/>
  <path d="M 1193.0,764.0 L 1193.0,838.0 L 1176.0,838.0" fill="none" stroke="#f59e0b" stroke-width="2.3" marker-end="url(#arrowF)" stroke-dasharray="6,4"/>
  <path d="M 64.0 168.0 L 84.4 168.0 L 93.58 150.0 L 115.0 150.0 L 214.0 150.0 L 214.0 234.0 L 64.0 234.0 Z" fill="#1e3a5f" stroke="#3b82f6" stroke-width="2.0"/>
  <line x1="86.0" y1="192.0" x2="192.0" y2="192.0" stroke="#93c5fd" stroke-opacity="0.35" stroke-width="1.2"/>
  <line x1="86.0" y1="206.0" x2="192.0" y2="206.0" stroke="#93c5fd" stroke-opacity="0.35" stroke-width="1.2"/>
  <line x1="86.0" y1="220.0" x2="192.0" y2="220.0" stroke="#93c5fd" stroke-opacity="0.35" stroke-width="1.2"/>
  <text x="139.0" y="260.0" text-anchor="middle" class="node-title">Mailbox</text>
  <rect x="286.0" y="152.0" width="224.0" height="80.0" rx="10.0" fill="#1e3a5f" stroke="#eab308" stroke-width="1.8"/>
  <text x="398.0" y="192.0" text-anchor="middle" class="node-title">Gmail-label FSM queue</text>
  <text x="398.0" y="214.0" text-anchor="middle" class="node-sub">inbox&gt;processing&gt;done/failed</text>
  <rect x="588.0" y="160.0" width="210.0" height="64.0" rx="10.0" fill="#0f172a" stroke="#3b82f6" stroke-width="1.8"/>
  <text x="693.0" y="192.0" text-anchor="middle" class="node-title">Service-account DWD</text>
  <text x="693.0" y="214.0" text-anchor="middle" class="node-sub">domain-wide delegation</text>
  <path d="M 1118.0 150.0 L 1266.0 150.0 Q 1276.0 150.0 1276.0 160.0 L 1276.0 224.0 Q 1276.0 234.0 1266.0 234.0 L 1134.0 234.0 L 1120.0 252.0 L 1124.0 234.0 L 1118.0 234.0 Q 1108.0 234.0 1108.0 224.0 L 1108.0 160.0 Q 1108.0 150.0 1118.0 150.0 Z" fill="#0f172a" stroke="#3b82f6" stroke-width="2.0" filter="url(#glowBlue)"/>
  <text x="1192.0" y="192.0" text-anchor="middle" class="node-title">Same-thread reply</text>
  <rect x="286.0" y="320.0" width="200.0" height="66.0" rx="10.0" fill="#1c1917" stroke="#f97316" stroke-width="1.8"/>
  <text x="386.0" y="353.0" text-anchor="middle" class="node-title">systemd timer</text>
  <text x="386.0" y="375.0" text-anchor="middle" class="node-sub">fires every 30s</text>
  <rect x="588.0" y="318.0" width="210.0" height="72.0" rx="10.0" fill="#1c1917" stroke="#f97316" stroke-width="2.0" filter="url(#glowOrange)"/>
  <rect x="594.0" y="324.0" width="198.0" height="60.0" rx="7.0" fill="none" stroke="#f97316" stroke-width="1.2" opacity="0.65"/>
  <text x="693.0" y="354.0" text-anchor="middle" class="node-title">Gate dispatcher</text>
  <text x="693.0" y="376.0" text-anchor="middle" class="node-sub">exactly-once claim</text>
  <rect x="596.0" y="468.0" width="160.0" height="120.0" rx="10.0" fill="#111827" stroke="#334155" stroke-width="2.0"/>
  <rect x="634.0" y="498.0" width="84" height="84" rx="18" fill="#1e293b" stroke="#334155" stroke-width="1.8"/>
  <rect x="650.0" y="514.0" width="52" height="22" rx="6" fill="#0f172a" stroke="#475569" stroke-width="1.2"/>
  <circle cx="664.0" cy="525.0" r="5" fill="#a855f7"/>
  <circle cx="688.0" cy="525.0" r="5" fill="#a855f7"/>
  <rect x="662.0" y="544.0" width="28" height="6" rx="3" fill="#334155"/>
  <line x1="676.0" y1="494.0" x2="676.0" y2="480.0" stroke="#a855f7" stroke-width="3"/>
  <circle cx="676.0" cy="476.0" r="5" fill="#a855f7"/>
  <text x="676.0" y="610.0" text-anchor="middle" class="node-title">claude -p worker</text>
  <text x="676.0" y="630.0" text-anchor="middle" class="node-sub">detached, idle = $0</text>
  <rect x="826.0" y="460.0" width="210.0" height="60.0" rx="10.0" fill="#1e1b4b" stroke="#a855f7" stroke-width="1.8"/>
  <text x="931.0" y="490.0" text-anchor="middle" class="node-title">Validation worker</text>
  <text x="931.0" y="512.0" text-anchor="middle" class="node-sub">fail-closed READY/NOT-READY</text>
  <rect x="826.0" y="532.0" width="210.0" height="50.0" rx="10.0" fill="#1e1b4b" stroke="#a855f7" stroke-width="1.8"/>
  <text x="931.0" y="557.0" text-anchor="middle" class="node-title">POA doc-gen</text>
  <rect x="826.0" y="594.0" width="210.0" height="50.0" rx="10.0" fill="#1e1b4b" stroke="#a855f7" stroke-width="1.8"/>
  <text x="931.0" y="619.0" text-anchor="middle" class="node-title">Spreading doc-gen</text>
  <rect x="1090.0" y="520.0" width="192.0" height="80.0" rx="10.0" fill="#1c1917" stroke="#f97316" stroke-width="1.8"/>
  <text x="1186.0" y="560.0" text-anchor="middle" class="node-title">Render tools</text>
  <text x="1186.0" y="582.0" text-anchor="middle" class="node-sub">LibreOffice / PyMuPDF / pypdf</text>
  <ellipse cx="406.0" cy="720.5" rx="43.0" ry="14.5" fill="#052e16" stroke="#10b981" stroke-width="2.2"/>
  <rect x="320.0" y="720.5" width="172.0" height="87.0" fill="#052e16" stroke="#10b981" stroke-width="2.2"/>
  <ellipse cx="406.0" cy="807.5" rx="43.0" ry="14.5" fill="#052e16" stroke="#10b981" stroke-width="2.2"/>
  <ellipse cx="406.0" cy="750.08" rx="43.0" ry="14.5" fill="none" stroke="#10b981" stroke-opacity="0.45" stroke-width="1.2"/>
  <ellipse cx="406.0" cy="775.6" rx="43.0" ry="14.5" fill="none" stroke="#10b981" stroke-opacity="0.25" stroke-width="1.2"/>
  <text x="406.0" y="758.0" text-anchor="middle" class="node-title">Ledger</text>
  <text x="406.0" y="782.0" text-anchor="middle" class="node-sub">MD+YAML system-of-record</text>
  <ellipse cx="668.0" cy="720.5" rx="46.0" ry="14.5" fill="#052e16" stroke="#10b981" stroke-width="2.2"/>
  <rect x="576.0" y="720.5" width="184.0" height="87.0" fill="#052e16" stroke="#10b981" stroke-width="2.2"/>
  <ellipse cx="668.0" cy="807.5" rx="46.0" ry="14.5" fill="#052e16" stroke="#10b981" stroke-width="2.2"/>
  <ellipse cx="668.0" cy="750.08" rx="46.0" ry="14.5" fill="none" stroke="#10b981" stroke-opacity="0.45" stroke-width="1.2"/>
  <ellipse cx="668.0" cy="775.6" rx="46.0" ry="14.5" fill="none" stroke="#10b981" stroke-opacity="0.25" stroke-width="1.2"/>
  <text x="668.0" y="758.0" text-anchor="middle" class="node-title">Per-deal state</text>
  <text x="668.0" y="782.0" text-anchor="middle" class="node-sub">state.json FSM, SHA-256 dedup</text>
  <rect x="904.0" y="706.0" width="168.0" height="58.0" rx="10.0" fill="#0f172a" stroke="#3b82f6" stroke-width="1.8"/>
  <text x="988.0" y="735.0" text-anchor="middle" class="node-title">Next.js dashboard</text>
  <rect x="1104.0" y="706.0" width="178.0" height="58.0" rx="10.0" fill="#0f172a" stroke="#3b82f6" stroke-width="1.8"/>
  <text x="1193.0" y="735.0" text-anchor="middle" class="node-title">FastAPI / arq bridge</text>
  <rect x="1010.0" y="814.0" width="166.0" height="48.0" rx="10.0" fill="#0f172a" stroke="#475569" stroke-width="1.8"/>
  <text x="1093.0" y="838.0" text-anchor="middle" class="node-title">over Tailscale</text>
  <rect x="365.0" y="272.2" width="42" height="20" rx="6" fill="#0f172a" opacity="0.92"/>
  <text x="386.0" y="286.2" text-anchor="middle" class="arrow-label">poll</text>
  <rect x="651.5" y="425.2" width="49" height="20" rx="6" fill="#0f172a" opacity="0.92"/>
  <text x="676.0" y="439.2" text-anchor="middle" class="arrow-label">spawn</text>
  <rect x="637.0" y="638.0" width="63" height="20" rx="6" fill="#0f172a" opacity="0.92"/>
  <text x="668.5" y="652.0" text-anchor="middle" class="arrow-label">publish</text>
  <rect x="643.5" y="643.2" width="49" height="20" rx="6" fill="#0f172a" opacity="0.92"/>
  <text x="668.0" y="657.2" text-anchor="middle" class="arrow-label">dedup</text>
  <rect x="658.5" y="832.0" width="77" height="20" rx="6" fill="#0f172a" opacity="0.92"/>
  <text x="697.0" y="846.0" text-anchor="middle" class="arrow-label">read-only</text>
  <rect x="870.0" y="286.0" width="247" height="112" rx="10" fill="rgba(15,23,42,0.88)" opacity="0.88"/>
  <line x1="880.0" y1="300.0" x2="910.0" y2="300.0" stroke="#fb7185" stroke-width="2.3" marker-end="url(#arrowE)"/>
  <text x="920.0" y="304.0" class="legend">Document / artifact flow</text>
  <line x1="880.0" y1="322.0" x2="910.0" y2="322.0" stroke="#a855f7" stroke-width="2.3" marker-end="url(#arrowA)"/>
  <text x="920.0" y="326.0" class="legend">Trigger / spawn</text>
  <line x1="880.0" y1="344.0" x2="910.0" y2="344.0" stroke="#38bdf8" stroke-width="2.3" marker-end="url(#arrowC)"/>
  <text x="920.0" y="348.0" class="legend">Read-only state surfacing</text>
  <line x1="880.0" y1="366.0" x2="910.0" y2="366.0" stroke="#f59e0b" stroke-width="2.3" marker-end="url(#arrowF)"/>
  <text x="920.0" y="370.0" class="legend">Poll / private-network</text>
  <text x="42.0" y="924.0" class="footnote">Signature decisions: fail-closed Gmail-label FSM · service-account domain-wide-delegation auth</text>
</svg>