<svg xmlns="http://www.w3.org/2000/svg" viewBox="0 0 1320 880" width="1320" height="880">
  <defs>
    <marker id="arrowA" markerWidth="10" markerHeight="7" refX="9" refY="3.5" orient="auto">
      <polygon points="0 0, 10 3.5, 0 7" fill="#a855f7"/>
    </marker>
    <marker id="arrowB" markerWidth="10" markerHeight="7" refX="9" refY="3.5" orient="auto">
      <polygon points="0 0, 10 3.5, 0 7" fill="#22c55e"/>
    </marker>
    <marker id="arrowC" markerWidth="10" markerHeight="7" refX="9" refY="3.5" orient="auto">
      <polygon points="0 0, 10 3.5, 0 7" fill="#38bdf8"/>
    </marker>
    <marker id="arrowE" markerWidth="10" markerHeight="7" refX="9" refY="3.5" orient="auto">
      <polygon points="0 0, 10 3.5, 0 7" fill="#fb7185"/>
    </marker>
    <marker id="arrowF" markerWidth="10" markerHeight="7" refX="9" refY="3.5" orient="auto">
      <polygon points="0 0, 10 3.5, 0 7" fill="#f59e0b"/>
    </marker>
    <marker id="arrowG" markerWidth="10" markerHeight="7" refX="9" refY="3.5" orient="auto">
      <polygon points="0 0, 10 3.5, 0 7" fill="#f97316"/>
    </marker>
    <marker id="arrowH" markerWidth="10" markerHeight="7" refX="9" refY="3.5" orient="auto">
      <polygon points="0 0, 10 3.5, 0 7" fill="#94a3b8"/>
    </marker>
    <linearGradient id="terminalGradient" x1="0%" y1="0%" x2="100%" y2="100%">
      <stop offset="0%" stop-color="#0f0f1a"/>
      <stop offset="100%" stop-color="#1a1a2e"/>
    </linearGradient>
    <filter id="glowBlue" x="-30%" y="-30%" width="160%" height="160%">
      <feDropShadow dx="0" dy="0" stdDeviation="5" flood-color="#3b82f6" flood-opacity="0.65"/>
    </filter>
    <filter id="glowPurple" x="-30%" y="-30%" width="160%" height="160%">
      <feDropShadow dx="0" dy="0" stdDeviation="5" flood-color="#a855f7" flood-opacity="0.72"/>
    </filter>
    <filter id="glowGreen" x="-30%" y="-30%" width="160%" height="160%">
      <feDropShadow dx="0" dy="0" stdDeviation="5" flood-color="#22c55e" flood-opacity="0.62"/>
    </filter>
    <filter id="glowOrange" x="-30%" y="-30%" width="160%" height="160%">
      <feDropShadow dx="0" dy="0" stdDeviation="5" flood-color="#f97316" flood-opacity="0.62"/>
    </filter>
    <style>
    text { font-family: 'SF Mono', 'Fira Code', Menlo, 'Microsoft YaHei', 'SimHei', monospace; }
    .title { font-size: 30px; font-weight: 700; fill: #e2e8f0; }
    .subtitle { font-size: 14px; font-weight: 500; fill: #94a3b8; }
    .section { font-size: 13px; font-weight: 700; fill: #38bdf8; letter-spacing: 1.4px; }
    .section-sub { font-size: 12px; font-weight: 500; fill: #64748b; }
    .node-title { font-size: 18px; font-weight: 700; fill: #e2e8f0; }
    .node-sub { font-size: 12px; font-weight: 500; fill: #94a3b8; }
    .node-type { font-size: 12px; font-weight: 700; fill: #64748b; letter-spacing: 0.08em; }
    .arrow-label { font-size: 12px; font-weight: 600; fill: #cbd5e1; }
    .legend { font-size: 12px; font-weight: 500; fill: #94a3b8; }
    .footnote { font-size: 12px; font-weight: 500; fill: #64748b; }
    </style>
  </defs>
  <rect width="1320.0" height="880.0" fill="url(#terminalGradient)"/>
  <circle cx="20.0" cy="20" r="5.5" fill="#ef4444"/>
  <circle cx="38.0" cy="20" r="5.5" fill="#f59e0b"/>
  <circle cx="56.0" cy="20" r="5.5" fill="#10b981"/>
  <text x="660.0" y="24" text-anchor="middle" font-size="11.0" font-weight="600" fill="#64748b">STUDIO BOOKING SaaS · ACCESS &amp; ROLE MODEL · v1.0</text>
  <text x="1292.0" y="24" text-anchor="end" font-size="11.0" font-weight="600" fill="#64748b">style-2-dark-terminal</text>
  <text x="660.0" y="56" text-anchor="middle" class="title">Access &amp; Role Model</text>
  <text x="660.0" y="82" text-anchor="middle" class="subtitle">Role-scoped JWT, edge gating, multi-tenant routing, and app-level studioId isolation</text>
  <rect x="36.0" y="156.0" width="252.0" height="632.0" rx="16.0" fill="rgba(15,23,42,0.18)" stroke="#334155" stroke-width="1.4" stroke-dasharray="7 6"/>
  <text x="54.0" y="180.0" class="section">ENTRY ACTORS</text>
  <rect x="320.0" y="156.0" width="446.0" height="632.0" rx="16.0" fill="rgba(15,23,42,0.18)" stroke="#334155" stroke-width="1.4" stroke-dasharray="7 6"/>
  <text x="338.0" y="180.0" class="section">ACCESS PIPELINE · EVERY REQUEST</text>
  <rect x="866.0" y="156.0" width="418.0" height="632.0" rx="16.0" fill="rgba(15,23,42,0.18)" stroke="#334155" stroke-width="1.4" stroke-dasharray="7 6"/>
  <text x="884.0" y="180.0" class="section">PER-ROLE CAPABILITY LANES</text>
  <path d="M 260.0,252.0 L 280.4,252.0 L 331.6,245.0 L 352.0,245.0" fill="none" stroke="#38bdf8" stroke-width="2.3" marker-end="url(#arrowC)"/>
  <path d="M 260.0,384.0 L 280.4,384.0 L 331.6,245.0 L 352.0,245.0" fill="none" stroke="#22c55e" stroke-width="2.3" marker-end="url(#arrowB)"/>
  <path d="M 260.0,516.0 L 280.4,516.0 L 331.6,245.0 L 352.0,245.0" fill="none" stroke="#f97316" stroke-width="2.3" marker-end="url(#arrowG)"/>
  <path d="M 260.0,648.0 L 280.4,648.0 L 331.6,245.0 L 352.0,245.0" fill="none" stroke="#a855f7" stroke-width="2.3" marker-end="url(#arrowA)"/>
  <path d="M 550.0,284.0 L 550.0,330.0" fill="none" stroke="#f59e0b" stroke-width="2.3" marker-end="url(#arrowF)"/>
  <path d="M 550.0,408.0 L 550.0,454.0" fill="none" stroke="#f59e0b" stroke-width="2.3" marker-end="url(#arrowF)"/>
  <path d="M 550.0,532.0 L 550.0,578.0" fill="none" stroke="#94a3b8" stroke-width="2.3" marker-end="url(#arrowH)"/>
  <path d="M 550.0,636.0 L 550.0,664.0" fill="none" stroke="#94a3b8" stroke-width="2.3" marker-end="url(#arrowH)"/>
  <path d="M 748.0,369.0 L 748.0,344.0 L 778.0,344.0 L 778.0,252.0 L 886.0,252.0" fill="none" stroke="#38bdf8" stroke-width="2.3" marker-end="url(#arrowC)"/>
  <path d="M 748.0,369.0 L 748.0,356.0 L 800.0,356.0 L 800.0,384.0 L 886.0,384.0" fill="none" stroke="#22c55e" stroke-width="2.3" marker-end="url(#arrowB)"/>
  <path d="M 748.0,369.0 L 748.0,382.0 L 822.0,382.0 L 822.0,516.0 L 886.0,516.0" fill="none" stroke="#f97316" stroke-width="2.3" marker-end="url(#arrowG)"/>
  <path d="M 748.0,369.0 L 748.0,394.0 L 844.0,394.0 L 844.0,648.0 L 886.0,648.0" fill="none" stroke="#a855f7" stroke-width="2.3" marker-end="url(#arrowA)"/>
  <path d="M 748.0,708.0 L 1076.0,708.0 L 1076.0,694.0" fill="none" stroke="#fb7185" stroke-width="2.3" marker-end="url(#arrowE)" stroke-dasharray="6,4"/>
  <path d="M 74.0 206.0 L 250.0 206.0 Q 260.0 206.0 260.0 216.0 L 260.0 288.0 Q 260.0 298.0 250.0 298.0 L 90.0 298.0 L 76.0 316.0 L 80.0 298.0 L 74.0 298.0 Q 64.0 298.0 64.0 288.0 L 64.0 216.0 Q 64.0 206.0 74.0 206.0 Z" fill="#0f172a" stroke="#3b82f6" stroke-width="2.0"/>
  <text x="162.0" y="252.0" text-anchor="middle" class="node-title">user</text>
  <text x="162.0" y="274.0" text-anchor="middle" class="node-sub">member / client</text>
  <path d="M 74.0 338.0 L 250.0 338.0 Q 260.0 338.0 260.0 348.0 L 260.0 420.0 Q 260.0 430.0 250.0 430.0 L 90.0 430.0 L 76.0 448.0 L 80.0 430.0 L 74.0 430.0 Q 64.0 430.0 64.0 420.0 L 64.0 348.0 Q 64.0 338.0 74.0 338.0 Z" fill="#0f172a" stroke="#10b981" stroke-width="2.0"/>
  <text x="162.0" y="384.0" text-anchor="middle" class="node-title">instructor</text>
  <text x="162.0" y="406.0" text-anchor="middle" class="node-sub">teaching staff</text>
  <path d="M 74.0 470.0 L 250.0 470.0 Q 260.0 470.0 260.0 480.0 L 260.0 552.0 Q 260.0 562.0 250.0 562.0 L 90.0 562.0 L 76.0 580.0 L 80.0 562.0 L 74.0 562.0 Q 64.0 562.0 64.0 552.0 L 64.0 480.0 Q 64.0 470.0 74.0 470.0 Z" fill="#0f172a" stroke="#f97316" stroke-width="2.0"/>
  <text x="162.0" y="516.0" text-anchor="middle" class="node-title">admin</text>
  <text x="162.0" y="538.0" text-anchor="middle" class="node-sub">studio operator</text>
  <path d="M 74.0 602.0 L 250.0 602.0 Q 260.0 602.0 260.0 612.0 L 260.0 684.0 Q 260.0 694.0 250.0 694.0 L 90.0 694.0 L 76.0 712.0 L 80.0 694.0 L 74.0 694.0 Q 64.0 694.0 64.0 684.0 L 64.0 612.0 Q 64.0 602.0 74.0 602.0 Z" fill="#0f172a" stroke="#a855f7" stroke-width="2.0"/>
  <text x="162.0" y="648.0" text-anchor="middle" class="node-title">superadmin</text>
  <text x="162.0" y="670.0" text-anchor="middle" class="node-sub">platform owner</text>
  <rect x="352.0" y="206.0" width="396.0" height="78.0" rx="10.0" fill="#111827" stroke="#3b82f6" stroke-width="2.0" filter="url(#glowBlue)"/>
  <rect x="358.0" y="212.0" width="384.0" height="66.0" rx="7.0" fill="none" stroke="#3b82f6" stroke-width="1.2" opacity="0.65"/>
  <text x="550.0" y="245.0" text-anchor="middle" class="node-title">NextAuth JWT</text>
  <text x="550.0" y="267.0" text-anchor="middle" class="node-sub">credentials provider · role-scoped claim</text>
  <rect x="352.0" y="330.0" width="396.0" height="78.0" rx="10.0" fill="#1c1917" stroke="#f97316" stroke-width="2.0" filter="url(#glowOrange)"/>
  <rect x="358.0" y="336.0" width="384.0" height="66.0" rx="7.0" fill="none" stroke="#f97316" stroke-width="1.2" opacity="0.65"/>
  <text x="550.0" y="369.0" text-anchor="middle" class="node-title">Edge Middleware</text>
  <text x="550.0" y="391.0" text-anchor="middle" class="node-sub">domain classification + role gating</text>
  <rect x="352.0" y="454.0" width="396.0" height="78.0" rx="10.0" fill="#111827" stroke="#3b82f6" stroke-width="1.8"/>
  <text x="550.0" y="493.0" text-anchor="middle" class="node-title">Multi-tenant subdomain routing</text>
  <text x="550.0" y="515.0" text-anchor="middle" class="node-sub">*.&lt;saas&gt;.app  +  custom domains</text>
  <rect x="352.0" y="578.0" width="396.0" height="58.0" rx="10.0" fill="#0f172a" stroke="#94a3b8" stroke-width="1.8"/>
  <text x="550.0" y="607.0" text-anchor="middle" class="node-title">Tenant Context</text>
  <text x="550.0" y="629.0" text-anchor="middle" class="node-sub">resolves active studioId</text>
  <rect x="352.0" y="664.0" width="396.0" height="88.0" rx="10.0" fill="#1a1505" stroke="#eab308" stroke-width="2.0"/>
  <rect x="358.0" y="670.0" width="384.0" height="76.0" rx="7.0" fill="none" stroke="#eab308" stroke-width="1.2" opacity="0.65"/>
  <text x="550.0" y="708.0" text-anchor="middle" class="node-title">scopedPrisma  ·  tenant isolation</text>
  <text x="550.0" y="730.0" text-anchor="middle" class="node-sub">app-level studioId injection — NOT Postgres RLS</text>
  <rect x="886.0" y="206.0" width="380.0" height="92.0" rx="10.0" fill="#0f172a" stroke="#3b82f6" stroke-width="1.8"/>
  <text x="1076.0" y="252.0" text-anchor="middle" class="node-title">book · waitlist · pay</text>
  <text x="1076.0" y="274.0" text-anchor="middle" class="node-sub">user — self-service member actions</text>
  <rect x="886.0" y="338.0" width="380.0" height="92.0" rx="10.0" fill="#0f172a" stroke="#10b981" stroke-width="1.8"/>
  <text x="1076.0" y="384.0" text-anchor="middle" class="node-title">schedule · roster · attendance</text>
  <text x="1076.0" y="406.0" text-anchor="middle" class="node-sub">instructor — assigned classes only</text>
  <rect x="886.0" y="470.0" width="380.0" height="92.0" rx="10.0" fill="#0f172a" stroke="#f97316" stroke-width="1.8"/>
  <text x="1076.0" y="516.0" text-anchor="middle" class="node-title">config · memberships · reports · messaging</text>
  <text x="1076.0" y="538.0" text-anchor="middle" class="node-sub">admin — full control within one studio</text>
  <rect x="886.0" y="602.0" width="380.0" height="92.0" rx="10.0" fill="#0f172a" stroke="#a855f7" stroke-width="1.8"/>
  <text x="1076.0" y="648.0" text-anchor="middle" class="node-title">cross-tenant ops · provisioning</text>
  <text x="1076.0" y="670.0" text-anchor="middle" class="node-sub">superadmin — spans all studios</text>
  <rect x="490.0" y="293.0" width="84" height="20" rx="6" fill="#0f172a" opacity="0.92"/>
  <text x="532.0" y="307.0" text-anchor="middle" class="arrow-label">role claim</text>
  <rect x="507.5" y="417.0" width="49" height="20" rx="6" fill="#0f172a" opacity="0.92"/>
  <text x="532.0" y="431.0" text-anchor="middle" class="arrow-label">gated</text>
  <rect x="476.0" y="541.0" width="112" height="20" rx="6" fill="#0f172a" opacity="0.92"/>
  <text x="532.0" y="555.0" text-anchor="middle" class="arrow-label">host to studio</text>
  <rect x="515.0" y="636.0" width="70" height="20" rx="6" fill="#0f172a" opacity="0.92"/>
  <text x="550.0" y="650.0" text-anchor="middle" class="arrow-label">studioId</text>
  <rect x="852.5" y="710.0" width="119" height="20" rx="6" fill="#0f172a" opacity="0.92"/>
  <text x="912.0" y="724.0" text-anchor="middle" class="arrow-label">studioId-scoped</text>
  <rect x="46.0" y="788.0" width="282" height="178" rx="10" fill="#0f172a" opacity="0.88"/>
  <line x1="56.0" y1="802.0" x2="86.0" y2="802.0" stroke="#38bdf8" stroke-width="2.3" marker-end="url(#arrowC)"/>
  <text x="96.0" y="806.0" class="legend">user role</text>
  <line x1="56.0" y1="824.0" x2="86.0" y2="824.0" stroke="#22c55e" stroke-width="2.3" marker-end="url(#arrowB)"/>
  <text x="96.0" y="828.0" class="legend">instructor role</text>
  <line x1="56.0" y1="846.0" x2="86.0" y2="846.0" stroke="#f97316" stroke-width="2.3" marker-end="url(#arrowG)"/>
  <text x="96.0" y="850.0" class="legend">admin role</text>
  <line x1="56.0" y1="868.0" x2="86.0" y2="868.0" stroke="#a855f7" stroke-width="2.3" marker-end="url(#arrowA)"/>
  <text x="96.0" y="872.0" class="legend">superadmin role</text>
  <line x1="56.0" y1="890.0" x2="86.0" y2="890.0" stroke="#f59e0b" stroke-width="2.3" marker-end="url(#arrowF)"/>
  <text x="96.0" y="894.0" class="legend">auth + role gating</text>
  <line x1="56.0" y1="912.0" x2="86.0" y2="912.0" stroke="#94a3b8" stroke-width="2.3" marker-end="url(#arrowH)"/>
  <text x="96.0" y="916.0" class="legend">tenant resolution</text>
  <line x1="56.0" y1="934.0" x2="86.0" y2="934.0" stroke="#fb7185" stroke-width="2.3" marker-end="url(#arrowE)"/>
  <text x="96.0" y="938.0" class="legend">studioId isolation (app-level)</text>
</svg>