<svg xmlns="http://www.w3.org/2000/svg" viewBox="0 0 1300 940" width="1300" height="940">
  <defs>
    <marker id="arrowA" markerWidth="10" markerHeight="7" refX="9" refY="3.5" orient="auto">
      <polygon points="0 0, 10 3.5, 0 7" fill="#a855f7"/>
    </marker>
    <marker id="arrowB" markerWidth="10" markerHeight="7" refX="9" refY="3.5" orient="auto">
      <polygon points="0 0, 10 3.5, 0 7" fill="#22c55e"/>
    </marker>
    <marker id="arrowC" markerWidth="10" markerHeight="7" refX="9" refY="3.5" orient="auto">
      <polygon points="0 0, 10 3.5, 0 7" fill="#38bdf8"/>
    </marker>
    <marker id="arrowE" markerWidth="10" markerHeight="7" refX="9" refY="3.5" orient="auto">
      <polygon points="0 0, 10 3.5, 0 7" fill="#fb7185"/>
    </marker>
    <marker id="arrowF" markerWidth="10" markerHeight="7" refX="9" refY="3.5" orient="auto">
      <polygon points="0 0, 10 3.5, 0 7" fill="#f59e0b"/>
    </marker>
    <marker id="arrowG" markerWidth="10" markerHeight="7" refX="9" refY="3.5" orient="auto">
      <polygon points="0 0, 10 3.5, 0 7" fill="#f97316"/>
    </marker>
    <marker id="arrowH" markerWidth="10" markerHeight="7" refX="9" refY="3.5" orient="auto">
      <polygon points="0 0, 10 3.5, 0 7" fill="#94a3b8"/>
    </marker>
    <linearGradient id="terminalGradient" x1="0%" y1="0%" x2="100%" y2="100%">
      <stop offset="0%" stop-color="#0f0f1a"/>
      <stop offset="100%" stop-color="#1a1a2e"/>
    </linearGradient>
    <filter id="glowBlue" x="-30%" y="-30%" width="160%" height="160%">
      <feDropShadow dx="0" dy="0" stdDeviation="5" flood-color="#3b82f6" flood-opacity="0.65"/>
    </filter>
    <filter id="glowPurple" x="-30%" y="-30%" width="160%" height="160%">
      <feDropShadow dx="0" dy="0" stdDeviation="5" flood-color="#a855f7" flood-opacity="0.72"/>
    </filter>
    <filter id="glowGreen" x="-30%" y="-30%" width="160%" height="160%">
      <feDropShadow dx="0" dy="0" stdDeviation="5" flood-color="#22c55e" flood-opacity="0.62"/>
    </filter>
    <filter id="glowOrange" x="-30%" y="-30%" width="160%" height="160%">
      <feDropShadow dx="0" dy="0" stdDeviation="5" flood-color="#f97316" flood-opacity="0.62"/>
    </filter>
    <style>
    text { font-family: 'SF Mono', 'Fira Code', Menlo, 'Microsoft YaHei', 'SimHei', monospace; }
    .title { font-size: 30px; font-weight: 700; fill: #e2e8f0; }
    .subtitle { font-size: 14px; font-weight: 500; fill: #94a3b8; }
    .section { font-size: 13px; font-weight: 700; fill: #38bdf8; letter-spacing: 1.4px; }
    .section-sub { font-size: 12px; font-weight: 500; fill: #64748b; }
    .node-title { font-size: 18px; font-weight: 700; fill: #e2e8f0; }
    .node-sub { font-size: 12px; font-weight: 500; fill: #94a3b8; }
    .node-type { font-size: 12px; font-weight: 700; fill: #64748b; letter-spacing: 0.08em; }
    .arrow-label { font-size: 12px; font-weight: 600; fill: #cbd5e1; }
    .legend { font-size: 12px; font-weight: 500; fill: #94a3b8; }
    .footnote { font-size: 12px; font-weight: 500; fill: #64748b; }
    </style>
  </defs>
  <rect width="1300.0" height="940.0" fill="url(#terminalGradient)"/>
  <circle cx="20.0" cy="20" r="5.5" fill="#ef4444"/>
  <circle cx="38.0" cy="20" r="5.5" fill="#f59e0b"/>
  <circle cx="56.0" cy="20" r="5.5" fill="#10b981"/>
  <text x="650.0" y="24" text-anchor="middle" font-size="11.0" font-weight="600" fill="#64748b">BOOKING SAAS · DATA-FLOW — SYNC REQUEST/RESPONSE vs EVENT-DRIVEN ASYNC</text>
  <text x="1272.0" y="24" text-anchor="end" font-size="11.0" font-weight="600" fill="#64748b">style-2-dark-terminal</text>
  <text x="650.0" y="56" text-anchor="middle" class="title">Booking SaaS · Data-Flow</text>
  <text x="650.0" y="82" text-anchor="middle" class="subtitle">Multi-tenant request spine (sync) split from durable event-driven processing (async)</text>
  <rect x="36.0" y="96.0" width="1228.0" height="150.0" rx="16.0" fill="rgba(15,23,42,0.18)" stroke="#3b82f6" stroke-width="1.4" stroke-dasharray="7 6"/>
  <text x="54.0" y="120.0" class="section">REQUEST SPINE  ·  TENANT-SCOPED READ/WRITE</text>
  <rect x="36.0" y="286.0" width="600.0" height="232.0" rx="16.0" fill="rgba(16,185,129,0.06)" stroke="#10b981" stroke-width="1.4" stroke-dasharray="7 6"/>
  <text x="54.0" y="310.0" class="section">SYNC PATH  ·  BLOCKING REQUEST/RESPONSE</text>
  <rect x="664.0" y="286.0" width="600.0" height="232.0" rx="16.0" fill="rgba(107,114,128,0.06)" stroke="#6b7280" stroke-width="1.4" stroke-dasharray="7 6"/>
  <text x="682.0" y="310.0" class="section">ASYNC PATH  ·  EVENT-DRIVEN, DURABLE, SCHEDULED</text>
  <rect x="36.0" y="566.0" width="1228.0" height="168.0" rx="16.0" fill="rgba(15,23,42,0.18)" stroke="#334155" stroke-width="1.4" stroke-dasharray="7 6"/>
  <text x="54.0" y="590.0" class="section">DEPENDENT SERVICES  ·  EXTERNAL + MANAGED</text>
  <path d="M 192.0,169.0 L 212.4,169.0 L 223.6,170.0 L 244.0,170.0" fill="none" stroke="#38bdf8" stroke-width="2.3" marker-end="url(#arrowC)"/>
  <path d="M 402.0,170.0 L 452.0,170.0" fill="none" stroke="#38bdf8" stroke-width="2.3" marker-end="url(#arrowC)"/>
  <path d="M 638.0,170.0 L 700.0,170.0" fill="none" stroke="#fb7185" stroke-width="2.3" marker-end="url(#arrowE)"/>
  <path d="M 878.0,170.0 L 898.4,170.0 L 1045.6,174.0 L 1066.0,174.0" fill="none" stroke="#fb7185" stroke-width="2.3" marker-end="url(#arrowE)"/>
  <path d="M 148.0,330.0 L 148.0,268.0 L 520.0,268.0 L 520.0,204.0 L 545.0,204.0" fill="none" stroke="#38bdf8" stroke-width="2.3" marker-end="url(#arrowC)"/>
  <path d="M 232.0,444.0 L 560.0,444.0 L 560.0,204.0 L 545.0,204.0" fill="none" stroke="#38bdf8" stroke-width="2.3" marker-end="url(#arrowC)"/>
  <path d="M 496.0,404.0 L 502.0,404.0 L 502.0,469.0 L 508.0,469.0" fill="none" stroke="#38bdf8" stroke-width="2.3" marker-end="url(#arrowC)"/>
  <path d="M 660.0,469.0 L 788.0,469.0 L 788.0,386.0" fill="none" stroke="#f59e0b" stroke-width="2.3" marker-end="url(#arrowF)" stroke-dasharray="6,4"/>
  <path d="M 788.0,386.0 L 788.0,410.0" fill="none" stroke="#f59e0b" stroke-width="2.3" marker-end="url(#arrowF)" stroke-dasharray="6,4"/>
  <path d="M 788.0,410.0 L 788.0,230.0 L 789.0,230.0 L 789.0,200.0" fill="none" stroke="#f59e0b" stroke-width="2.3" marker-end="url(#arrowF)" stroke-dasharray="6,4"/>
  <path d="M 1079.0,318.0 L 1079.0,110.0 L 638.0,110.0 L 638.0,170.0" fill="none" stroke="#f59e0b" stroke-width="2.3" marker-end="url(#arrowF)" stroke-dasharray="6,4"/>
  <path d="M 1079.0,478.0 L 1079.0,540.0 L 748.0,540.0 L 748.0,640.0" fill="none" stroke="#f59e0b" stroke-width="2.3" marker-end="url(#arrowF)" stroke-dasharray="6,4"/>
  <path d="M 690.0,445.0 L 139.0,445.0 L 139.0,612.0" fill="none" stroke="#f59e0b" stroke-width="2.3" marker-end="url(#arrowF)" stroke-dasharray="6,4"/>
  <path d="M 916.0,354.0 L 309.0,354.0 L 309.0,612.0" fill="none" stroke="#f59e0b" stroke-width="2.3" marker-end="url(#arrowF)" stroke-dasharray="6,4"/>
  <path d="M 789.0,200.0 L 789.0,556.0 L 485.0,556.0 L 485.0,612.0" fill="none" stroke="#a855f7" stroke-width="2.3" marker-end="url(#arrowA)"/>
  <path d="M 788.0,480.0 L 886.0,460.0 L 1019.0,460.0 L 1019.0,612.0" fill="none" stroke="#f59e0b" stroke-width="2.3" marker-end="url(#arrowF)" stroke-dasharray="6,4"/>
  <path d="M 70.0 134.0 L 182.0 134.0 Q 192.0 134.0 192.0 144.0 L 192.0 194.0 Q 192.0 204.0 182.0 204.0 L 86.0 204.0 L 72.0 222.0 L 76.0 204.0 L 70.0 204.0 Q 60.0 204.0 60.0 194.0 L 60.0 144.0 Q 60.0 134.0 70.0 134.0 Z" fill="#0f172a" stroke="#3b82f6" stroke-width="2.0"/>
  <text x="126.0" y="169.0" text-anchor="middle" class="node-title">Host / Domain</text>
  <text x="126.0" y="191.0" text-anchor="middle" class="node-sub">tenant routing</text>
  <rect x="244.0" y="140.0" width="158.0" height="60.0" rx="10.0" fill="#1e3a5f" stroke="#3b82f6" stroke-width="1.8"/>
  <text x="323.0" y="170.0" text-anchor="middle" class="node-title">Edge Middleware</text>
  <rect x="452.0" y="136.0" width="186.0" height="68.0" rx="10.0" fill="#1c1917" stroke="#f97316" stroke-width="2.0"/>
  <rect x="458.0" y="142.0" width="174.0" height="56.0" rx="7.0" fill="none" stroke="#f97316" stroke-width="1.2" opacity="0.65"/>
  <text x="545.0" y="170.0" text-anchor="middle" class="node-title">Server Actions / API</text>
  <text x="545.0" y="192.0" text-anchor="middle" class="node-sub">125 routes</text>
  <rect x="700.0" y="140.0" width="178.0" height="60.0" rx="10.0" fill="#1e1b4b" stroke="#a855f7" stroke-width="1.8"/>
  <text x="789.0" y="170.0" text-anchor="middle" class="node-title">Tenant Context</text>
  <text x="789.0" y="192.0" text-anchor="middle" class="node-sub">scopedPrisma</text>
  <ellipse cx="1150.0" cy="130.5" rx="42.0" ry="14.5" fill="#052e16" stroke="#10b981" stroke-width="2.2"/>
  <rect x="1066.0" y="130.5" width="168.0" height="87.0" fill="#052e16" stroke="#10b981" stroke-width="2.2"/>
  <ellipse cx="1150.0" cy="217.5" rx="42.0" ry="14.5" fill="#052e16" stroke="#10b981" stroke-width="2.2"/>
  <ellipse cx="1150.0" cy="160.07999999999998" rx="42.0" ry="14.5" fill="none" stroke="#10b981" stroke-opacity="0.45" stroke-width="1.2"/>
  <ellipse cx="1150.0" cy="185.6" rx="42.0" ry="14.5" fill="none" stroke="#10b981" stroke-opacity="0.25" stroke-width="1.2"/>
  <text x="1150.0" y="168.0" text-anchor="middle" class="node-title">Neon Postgres</text>
  <text x="1150.0" y="192.0" text-anchor="middle" class="node-sub">45 models · studioId-scoped</text>
  <rect x="64.0" y="330.0" width="168.0" height="56.0" rx="10.0" fill="#052e16" stroke="#10b981" stroke-width="1.8"/>
  <text x="148.0" y="358.0" text-anchor="middle" class="node-title">Class Booking</text>
  <rect x="64.0" y="416.0" width="168.0" height="56.0" rx="10.0" fill="#052e16" stroke="#10b981" stroke-width="1.8"/>
  <text x="148.0" y="444.0" text-anchor="middle" class="node-title">Auth / Session</text>
  <rect x="300.0" y="372.0" width="196.0" height="64.0" rx="10.0" fill="#052e16" stroke="#10b981" stroke-width="1.8"/>
  <text x="398.0" y="404.0" text-anchor="middle" class="node-title">Square Web SDK</text>
  <text x="398.0" y="426.0" text-anchor="middle" class="node-sub">checkout</text>
  <rect x="690.0" y="322.0" width="196.0" height="64.0" rx="10.0" fill="#1f2937" stroke="#6b7280" stroke-width="1.8"/>
  <text x="788.0" y="354.0" text-anchor="middle" class="node-title">Square Webhooks</text>
  <text x="788.0" y="376.0" text-anchor="middle" class="node-sub">HMAC SHA256 → idempotency</text>
  <rect x="690.0" y="410.0" width="196.0" height="70.0" rx="10.0" fill="#1f2937" stroke="#6b7280" stroke-width="2.0"/>
  <rect x="696.0" y="416.0" width="184.0" height="58.0" rx="7.0" fill="none" stroke="#6b7280" stroke-width="1.2" opacity="0.65"/>
  <text x="788.0" y="445.0" text-anchor="middle" class="node-title">Inngest durable fns</text>
  <text x="788.0" y="467.0" text-anchor="middle" class="node-sub">conversion · DSAR cascade</text>
  <rect x="916.0" y="318.0" width="326.0" height="72.0" rx="10.0" fill="#1f2937" stroke="#eab308" stroke-width="1.8"/>
  <text x="1079.0" y="354.0" text-anchor="middle" class="node-title">6 Vercel Cron</text>
  <text x="1079.0" y="376.0" text-anchor="middle" class="node-sub">waitlist-expiry · no-show · expire-points · expire-memberships · generate-schedule · reminders</text>
  <rect x="916.0" y="412.0" width="326.0" height="66.0" rx="10.0" fill="#1f2937" stroke="#6b7280" stroke-width="1.8"/>
  <text x="1079.0" y="445.0" text-anchor="middle" class="node-title">AppSync realtime</text>
  <text x="1079.0" y="467.0" text-anchor="middle" class="node-sub">live SMS / status push</text>
  <path d="M 508.0 448.0 L 528.672 448.0 L 537.9744000000001 430.0 L 559.6800000000001 430.0 L 660.0 430.0 L 660.0 508.0 L 508.0 508.0 Z" fill="#3f2a00" stroke="#f59e0b" stroke-width="2.0"/>
  <line x1="530.0" y1="472.0" x2="638.0" y2="472.0" stroke="#fcd34d" stroke-opacity="0.35" stroke-width="1.2"/>
  <line x1="530.0" y1="486.0" x2="638.0" y2="486.0" stroke="#fcd34d" stroke-opacity="0.35" stroke-width="1.2"/>
  <line x1="530.0" y1="500.0" x2="638.0" y2="500.0" stroke="#fcd34d" stroke-opacity="0.35" stroke-width="1.2"/>
  <text x="584.0" y="534.0" text-anchor="middle" class="node-title">Square</text>
  <text x="584.0" y="552.0" text-anchor="middle" class="node-sub">external payments</text>
  <rect x="64.0" y="612.0" width="150.0" height="56.0" rx="10.0" fill="#0f172a" stroke="#3b82f6" stroke-width="1.8"/>
  <text x="139.0" y="640.0" text-anchor="middle" class="node-title">AWS SES</text>
  <text x="139.0" y="662.0" text-anchor="middle" class="node-sub">email</text>
  <rect x="234.0" y="612.0" width="150.0" height="56.0" rx="10.0" fill="#0f172a" stroke="#3b82f6" stroke-width="1.8"/>
  <text x="309.0" y="640.0" text-anchor="middle" class="node-title">AWS SNS</text>
  <text x="309.0" y="662.0" text-anchor="middle" class="node-sub">SMS</text>
  <rect x="404.0" y="612.0" width="162.0" height="56.0" rx="10.0" fill="#0f172a" stroke="#3b82f6" stroke-width="1.8"/>
  <text x="485.0" y="640.0" text-anchor="middle" class="node-title">AWS KMS</text>
  <text x="485.0" y="662.0" text-anchor="middle" class="node-sub">envelope crypto</text>
  <rect x="586.0" y="612.0" width="162.0" height="56.0" rx="10.0" fill="#0f172a" stroke="#3b82f6" stroke-width="1.8"/>
  <text x="667.0" y="640.0" text-anchor="middle" class="node-title">AWS AppSync</text>
  <text x="667.0" y="662.0" text-anchor="middle" class="node-sub">realtime</text>
  <rect x="768.0" y="612.0" width="150.0" height="56.0" rx="10.0" fill="#0f172a" stroke="#3b82f6" stroke-width="1.8"/>
  <text x="843.0" y="640.0" text-anchor="middle" class="node-title">Resend</text>
  <text x="843.0" y="662.0" text-anchor="middle" class="node-sub">transactional</text>
  <rect x="938.0" y="612.0" width="162.0" height="56.0" rx="10.0" fill="#0f172a" stroke="#3b82f6" stroke-width="1.8"/>
  <text x="1019.0" y="640.0" text-anchor="middle" class="node-title">Google Ads</text>
  <text x="1019.0" y="662.0" text-anchor="middle" class="node-sub">conversion adapter</text>
  <rect x="1120.0" y="612.0" width="122.0" height="56.0" rx="10.0" fill="#0f172a" stroke="#3b82f6" stroke-width="1.8"/>
  <text x="1181.0" y="640.0" text-anchor="middle" class="node-title">Vercel Blob</text>
  <text x="1181.0" y="662.0" text-anchor="middle" class="node-sub">assets</text>
  <rect x="313.0" y="238.0" width="42" height="20" rx="6" fill="#0f172a" opacity="0.92"/>
  <text x="334.0" y="252.0" text-anchor="middle" class="arrow-label">sync</text>
  <rect x="467.0" y="422.5" width="70" height="20" rx="6" fill="#0f172a" opacity="0.92"/>
  <text x="502.0" y="436.5" text-anchor="middle" class="arrow-label">tokenize</text>
  <rect x="682.0" y="481.0" width="112" height="20" rx="6" fill="#0f172a" opacity="0.92"/>
  <text x="738.0" y="495.0" text-anchor="middle" class="arrow-label">webhook return</text>
  <rect x="760.0" y="306.0" width="56" height="20" rx="6" fill="#0f172a" opacity="0.92"/>
  <text x="788.0" y="320.0" text-anchor="middle" class="arrow-label">writes</text>
  <rect x="802.5" y="68.0" width="112" height="20" rx="6" fill="#0f172a" opacity="0.92"/>
  <text x="858.5" y="82.0" text-anchor="middle" class="arrow-label">scheduled jobs</text>
  <rect x="605.5" y="576.0" width="63" height="20" rx="6" fill="#0f172a" opacity="0.92"/>
  <text x="637.0" y="590.0" text-anchor="middle" class="arrow-label">decrypt</text>
  <rect x="26.0" y="752.0" width="310" height="112" rx="10" fill="rgba(15,23,42,0.92)" opacity="0.88"/>
  <line x1="36.0" y1="766.0" x2="66.0" y2="766.0" stroke="#38bdf8" stroke-width="2.3" marker-end="url(#arrowC)"/>
  <text x="76.0" y="770.0" class="legend">Sync request / response (blocking)</text>
  <line x1="36.0" y1="788.0" x2="66.0" y2="788.0" stroke="#fb7185" stroke-width="2.3" marker-end="url(#arrowE)"/>
  <text x="76.0" y="792.0" class="legend">Tenant-scoped DB write</text>
  <line x1="36.0" y1="810.0" x2="66.0" y2="810.0" stroke="#f59e0b" stroke-width="2.3" marker-end="url(#arrowF)"/>
  <text x="76.0" y="814.0" class="legend">Event-driven async (non-blocking)</text>
  <line x1="36.0" y1="832.0" x2="66.0" y2="832.0" stroke="#a855f7" stroke-width="2.3" marker-end="url(#arrowA)"/>
  <text x="76.0" y="836.0" class="legend">Crypto / control</text>
  <text x="42.0" y="924.0" class="footnote">Single biggest distinction: the sync spine answers the user request in-band; everything durable, scheduled, or third-party fans out async via webhooks, Inngest, Cron and AppSync.</text>
</svg>