<svg xmlns="http://www.w3.org/2000/svg" viewBox="0 0 1200 600" width="1200" height="600">
  <defs>
    <marker id="arrowA" markerWidth="10" markerHeight="7" refX="9" refY="3.5" orient="auto">
      <polygon points="0 0, 10 3.5, 0 7" fill="#a855f7"/>
    </marker>
    <marker id="arrowB" markerWidth="10" markerHeight="7" refX="9" refY="3.5" orient="auto">
      <polygon points="0 0, 10 3.5, 0 7" fill="#22c55e"/>
    </marker>
    <marker id="arrowC" markerWidth="10" markerHeight="7" refX="9" refY="3.5" orient="auto">
      <polygon points="0 0, 10 3.5, 0 7" fill="#38bdf8"/>
    </marker>
    <marker id="arrowE" markerWidth="10" markerHeight="7" refX="9" refY="3.5" orient="auto">
      <polygon points="0 0, 10 3.5, 0 7" fill="#fb7185"/>
    </marker>
    <marker id="arrowF" markerWidth="10" markerHeight="7" refX="9" refY="3.5" orient="auto">
      <polygon points="0 0, 10 3.5, 0 7" fill="#f59e0b"/>
    </marker>
    <marker id="arrowG" markerWidth="10" markerHeight="7" refX="9" refY="3.5" orient="auto">
      <polygon points="0 0, 10 3.5, 0 7" fill="#f97316"/>
    </marker>
    <marker id="arrowH" markerWidth="10" markerHeight="7" refX="9" refY="3.5" orient="auto">
      <polygon points="0 0, 10 3.5, 0 7" fill="#94a3b8"/>
    </marker>
    <linearGradient id="terminalGradient" x1="0%" y1="0%" x2="100%" y2="100%">
      <stop offset="0%" stop-color="#0f0f1a"/>
      <stop offset="100%" stop-color="#1a1a2e"/>
    </linearGradient>
    <filter id="glowBlue" x="-30%" y="-30%" width="160%" height="160%">
      <feDropShadow dx="0" dy="0" stdDeviation="5" flood-color="#3b82f6" flood-opacity="0.65"/>
    </filter>
    <filter id="glowPurple" x="-30%" y="-30%" width="160%" height="160%">
      <feDropShadow dx="0" dy="0" stdDeviation="5" flood-color="#a855f7" flood-opacity="0.72"/>
    </filter>
    <filter id="glowGreen" x="-30%" y="-30%" width="160%" height="160%">
      <feDropShadow dx="0" dy="0" stdDeviation="5" flood-color="#22c55e" flood-opacity="0.62"/>
    </filter>
    <filter id="glowOrange" x="-30%" y="-30%" width="160%" height="160%">
      <feDropShadow dx="0" dy="0" stdDeviation="5" flood-color="#f97316" flood-opacity="0.62"/>
    </filter>
    <style>
    text { font-family: 'SF Mono', 'Fira Code', Menlo, 'Microsoft YaHei', 'SimHei', monospace; }
    .title { font-size: 30px; font-weight: 700; fill: #e2e8f0; }
    .subtitle { font-size: 14px; font-weight: 500; fill: #94a3b8; }
    .section { font-size: 13px; font-weight: 700; fill: #38bdf8; letter-spacing: 1.4px; }
    .section-sub { font-size: 12px; font-weight: 500; fill: #64748b; }
    .node-title { font-size: 18px; font-weight: 700; fill: #e2e8f0; }
    .node-sub { font-size: 12px; font-weight: 500; fill: #94a3b8; }
    .node-type { font-size: 12px; font-weight: 700; fill: #64748b; letter-spacing: 0.08em; }
    .arrow-label { font-size: 12px; font-weight: 600; fill: #cbd5e1; }
    .legend { font-size: 12px; font-weight: 500; fill: #94a3b8; }
    .footnote { font-size: 12px; font-weight: 500; fill: #64748b; }
    </style>
  </defs>
  <rect width="1200.0" height="600.0" fill="url(#terminalGradient)"/>
  <circle cx="20.0" cy="20" r="5.5" fill="#ef4444"/>
  <circle cx="38.0" cy="20" r="5.5" fill="#f59e0b"/>
  <circle cx="56.0" cy="20" r="5.5" fill="#10b981"/>
  <text x="600.0" y="24" text-anchor="middle" font-size="11.0" font-weight="600" fill="#64748b">APPLIFY AI · SELF-REPORTED STACK · D4</text>
  <text x="1172.0" y="24" text-anchor="end" font-size="11.0" font-weight="600" fill="#64748b">style-2-dark-terminal</text>
  <text x="600.0" y="56" text-anchor="middle" class="title">Applify AI</text>
  <text x="600.0" y="82" text-anchor="middle" class="subtitle">Resume-bullet generator — self-reported public stack (no source repo verified)</text>
  <rect x="36.0" y="96.0" width="1128.0" height="188.0" rx="16.0" fill="rgba(15,23,42,0.18)" stroke="#334155" stroke-width="1.4" stroke-dasharray="7 6"/>
  <text x="54.0" y="120.0" class="section">EVENT-DRIVEN GENERATION PIPELINE</text>
  <rect x="36.0" y="330.0" width="1128.0" height="168.0" rx="16.0" fill="rgba(15,23,42,0.18)" stroke="#334155" stroke-width="1.4" stroke-dasharray="7 6"/>
  <text x="54.0" y="354.0" class="section">FOUNDATION  ·  SUPPORT SERVICES (ROLE UNVERIFIED — NO ASSERTED DATA PATH)</text>
  <path d="M 292.0,198.0 L 360.0,198.0" fill="none" stroke="#a855f7" stroke-width="2.3" marker-end="url(#arrowA)"/>
  <path d="M 592.0,198.0 L 660.0,198.0" fill="none" stroke="#fb7185" stroke-width="2.3" marker-end="url(#arrowE)"/>
  <path d="M 892.0,198.0 L 912.4,198.0 L 941.6,200.0 L 962.0,200.0" fill="none" stroke="#fb7185" stroke-width="2.3" marker-end="url(#arrowE)"/>
  <rect x="70.0" y="150.0" width="222.0" height="96.0" rx="10.0" fill="#1e3a5f" stroke="#3b82f6" stroke-width="1.8" filter="url(#glowBlue)"/>
  <text x="181.0" y="198.0" text-anchor="middle" class="node-title">Next.js 15 / React 19</text>
  <text x="181.0" y="220.0" text-anchor="middle" class="node-sub">JWT premium gating</text>
  <rect x="360.0" y="150.0" width="232.0" height="96.0" rx="10.0" fill="#1c1917" stroke="#f97316" stroke-width="1.8" filter="url(#glowOrange)"/>
  <text x="476.0" y="198.0" text-anchor="middle" class="node-title">Inngest pipeline</text>
  <text x="476.0" y="220.0" text-anchor="middle" class="node-sub">multi-minute LLM · step-checkpointed</text>
  <rect x="660.0" y="150.0" width="232.0" height="96.0" rx="10.0" fill="#1e1b4b" stroke="#a855f7" stroke-width="2.0" filter="url(#glowPurple)"/>
  <rect x="666.0" y="156.0" width="220.0" height="84.0" rx="7.0" fill="none" stroke="#a855f7" stroke-width="1.2" opacity="0.65"/>
  <text x="776.0" y="198.0" text-anchor="middle" class="node-title">OpenAI GPT-5.1</text>
  <text x="776.0" y="220.0" text-anchor="middle" class="node-sub">Responses API + Zod outputs</text>
  <ellipse cx="1041.0" cy="156.5" rx="39.5" ry="14.5" fill="#052e16" stroke="#10b981" stroke-width="2.2"/>
  <rect x="962.0" y="156.5" width="158.0" height="87.0" fill="#052e16" stroke="#10b981" stroke-width="2.2"/>
  <ellipse cx="1041.0" cy="243.5" rx="39.5" ry="14.5" fill="#052e16" stroke="#10b981" stroke-width="2.2"/>
  <ellipse cx="1041.0" cy="186.07999999999998" rx="39.5" ry="14.5" fill="none" stroke="#10b981" stroke-opacity="0.45" stroke-width="1.2"/>
  <ellipse cx="1041.0" cy="211.6" rx="39.5" ry="14.5" fill="none" stroke="#10b981" stroke-opacity="0.25" stroke-width="1.2"/>
  <text x="1041.0" y="194.0" text-anchor="middle" class="node-title">Postgres</text>
  <text x="1041.0" y="218.0" text-anchor="middle" class="node-sub">Prisma 7</text>
  <rect x="70.0" y="392.0" width="196.0" height="78.0" rx="10.0" fill="#0f172a" stroke="#475569" stroke-width="1.8"/>
  <text x="168.0" y="431.0" text-anchor="middle" class="node-title">Stripe</text>
  <text x="168.0" y="453.0" text-anchor="middle" class="node-sub">billing</text>
  <rect x="290.0" y="392.0" width="196.0" height="78.0" rx="10.0" fill="#0f172a" stroke="#475569" stroke-width="1.8"/>
  <text x="388.0" y="431.0" text-anchor="middle" class="node-title">Sentry</text>
  <text x="388.0" y="453.0" text-anchor="middle" class="node-sub">observability</text>
  <rect x="510.0" y="392.0" width="196.0" height="78.0" rx="10.0" fill="#0f172a" stroke="#475569" stroke-width="1.8"/>
  <text x="608.0" y="431.0" text-anchor="middle" class="node-title">Upstash Redis</text>
  <text x="608.0" y="453.0" text-anchor="middle" class="node-sub">cache / kv</text>
  <path d="M 730.0 410.0 L 751.6 410.0 L 761.32 392.0 L 784.0 392.0 L 926.0 392.0 L 926.0 470.0 L 730.0 470.0 Z" fill="#0f172a" stroke="#475569" stroke-width="2.0"/>
  <line x1="752.0" y1="434.0" x2="904.0" y2="434.0" stroke="#64748b" stroke-opacity="0.35" stroke-width="1.2"/>
  <line x1="752.0" y1="448.0" x2="904.0" y2="448.0" stroke="#64748b" stroke-opacity="0.35" stroke-width="1.2"/>
  <line x1="752.0" y1="462.0" x2="904.0" y2="462.0" stroke="#64748b" stroke-opacity="0.35" stroke-width="1.2"/>
  <text x="828.0" y="496.0" text-anchor="middle" class="node-title">Vercel Blob</text>
  <text x="828.0" y="514.0" text-anchor="middle" class="node-sub">object storage</text>
  <rect x="950.0" y="392.0" width="196.0" height="78.0" rx="10.0" fill="#0f172a" stroke="#475569" stroke-width="1.8"/>
  <text x="1048.0" y="431.0" text-anchor="middle" class="node-title">5-job CI</text>
  <text x="1048.0" y="453.0" text-anchor="middle" class="node-sub">+ Dependabot</text>
  <text x="326.0" y="198.0" text-anchor="middle" class="arrow-label">enqueue</text>
  <text x="626.0" y="182.0" text-anchor="middle" class="arrow-label">infer</text>
  <text x="927.0" y="199.0" text-anchor="middle" class="arrow-label">persist</text>
  <rect x="935.0" y="506.0" width="233" height="68" rx="10" fill="rgba(15,23,42,0.72)" opacity="0.88"/>
  <line x1="945.0" y1="520.0" x2="975.0" y2="520.0" stroke="#a855f7" stroke-width="2.3" marker-end="url(#arrowA)"/>
  <text x="985.0" y="524.0" class="legend">Request / enqueue</text>
  <line x1="945.0" y1="542.0" x2="975.0" y2="542.0" stroke="#fb7185" stroke-width="2.3" marker-end="url(#arrowE)"/>
  <text x="985.0" y="546.0" class="legend">LLM inference + persist</text>
  <text x="42.0" y="584.0" class="footnote">self-reported public stack</text>
</svg>