<svg xmlns="http://www.w3.org/2000/svg" viewBox="0 0 1360 1200" width="1360" height="1200">
  <defs>
    <marker id="arrowA" markerWidth="10" markerHeight="7" refX="9" refY="3.5" orient="auto">
      <polygon points="0 0, 10 3.5, 0 7" fill="#a855f7"/>
    </marker>
    <marker id="arrowB" markerWidth="10" markerHeight="7" refX="9" refY="3.5" orient="auto">
      <polygon points="0 0, 10 3.5, 0 7" fill="#22c55e"/>
    </marker>
    <marker id="arrowC" markerWidth="10" markerHeight="7" refX="9" refY="3.5" orient="auto">
      <polygon points="0 0, 10 3.5, 0 7" fill="#38bdf8"/>
    </marker>
    <marker id="arrowE" markerWidth="10" markerHeight="7" refX="9" refY="3.5" orient="auto">
      <polygon points="0 0, 10 3.5, 0 7" fill="#fb7185"/>
    </marker>
    <marker id="arrowF" markerWidth="10" markerHeight="7" refX="9" refY="3.5" orient="auto">
      <polygon points="0 0, 10 3.5, 0 7" fill="#f59e0b"/>
    </marker>
    <marker id="arrowG" markerWidth="10" markerHeight="7" refX="9" refY="3.5" orient="auto">
      <polygon points="0 0, 10 3.5, 0 7" fill="#f97316"/>
    </marker>
    <marker id="arrowH" markerWidth="10" markerHeight="7" refX="9" refY="3.5" orient="auto">
      <polygon points="0 0, 10 3.5, 0 7" fill="#94a3b8"/>
    </marker>
    <linearGradient id="terminalGradient" x1="0%" y1="0%" x2="100%" y2="100%">
      <stop offset="0%" stop-color="#0f0f1a"/>
      <stop offset="100%" stop-color="#1a1a2e"/>
    </linearGradient>
    <filter id="glowBlue" x="-30%" y="-30%" width="160%" height="160%">
      <feDropShadow dx="0" dy="0" stdDeviation="5" flood-color="#3b82f6" flood-opacity="0.65"/>
    </filter>
    <filter id="glowPurple" x="-30%" y="-30%" width="160%" height="160%">
      <feDropShadow dx="0" dy="0" stdDeviation="5" flood-color="#a855f7" flood-opacity="0.72"/>
    </filter>
    <filter id="glowGreen" x="-30%" y="-30%" width="160%" height="160%">
      <feDropShadow dx="0" dy="0" stdDeviation="5" flood-color="#22c55e" flood-opacity="0.62"/>
    </filter>
    <filter id="glowOrange" x="-30%" y="-30%" width="160%" height="160%">
      <feDropShadow dx="0" dy="0" stdDeviation="5" flood-color="#f97316" flood-opacity="0.62"/>
    </filter>
    <style>
    text { font-family: 'SF Mono', 'Fira Code', Menlo, 'Microsoft YaHei', 'SimHei', monospace; }
    .title { font-size: 30px; font-weight: 700; fill: #e2e8f0; }
    .subtitle { font-size: 14px; font-weight: 500; fill: #94a3b8; }
    .section { font-size: 13px; font-weight: 700; fill: #38bdf8; letter-spacing: 1.4px; }
    .section-sub { font-size: 12px; font-weight: 500; fill: #64748b; }
    .node-title { font-size: 18px; font-weight: 700; fill: #e2e8f0; }
    .node-sub { font-size: 12px; font-weight: 500; fill: #94a3b8; }
    .node-type { font-size: 12px; font-weight: 700; fill: #64748b; letter-spacing: 0.08em; }
    .arrow-label { font-size: 12px; font-weight: 600; fill: #cbd5e1; }
    .legend { font-size: 12px; font-weight: 500; fill: #94a3b8; }
    .footnote { font-size: 12px; font-weight: 500; fill: #64748b; }
    </style>
  </defs>
  <rect width="1360.0" height="1200.0" fill="url(#terminalGradient)"/>
  <circle cx="20.0" cy="20" r="5.5" fill="#ef4444"/>
  <circle cx="38.0" cy="20" r="5.5" fill="#f59e0b"/>
  <circle cx="56.0" cy="20" r="5.5" fill="#10b981"/>
  <text x="680.0" y="24" text-anchor="middle" font-size="11.0" font-weight="600" fill="#64748b">PODCASTHUB · EVENT-DRIVEN CHOREOGRAPHY ACROSS DDD BOUNDED CONTEXTS</text>
  <text x="1332.0" y="24" text-anchor="end" font-size="11.0" font-weight="600" fill="#64748b">CAS 735 · hexagonal / ports-and-adapters</text>
  <text x="680.0" y="56" text-anchor="middle" class="title">PodcastHub · Distributed Microservices</text>
  <text x="680.0" y="82" text-anchor="middle" class="subtitle">Hexagonal services, AMQP choreography, bounded-context-owns-its-data — no API gateway, direct per-service REST</text>
  <rect x="36.0" y="96.0" width="980.0" height="118.0" rx="16.0" fill="rgba(15,23,42,0.18)" stroke="#3b82f6" stroke-width="1.4" stroke-dasharray="7 6"/>
  <text x="54.0" y="120.0" class="section">L1  ACCESS</text>
  <text x="54.0" y="140.0" class="section-sub">no API gateway — direct per-service REST</text>
  <rect x="36.0" y="250.0" width="980.0" height="150.0" rx="16.0" fill="rgba(15,23,42,0.18)" stroke="#f97316" stroke-width="1.4" stroke-dasharray="7 6"/>
  <text x="54.0" y="274.0" class="section">L2  CORE SERVICES</text>
  <text x="54.0" y="294.0" class="section-sub">hexagonal · one bounded context each</text>
  <rect x="36.0" y="436.0" width="980.0" height="158.0" rx="16.0" fill="rgba(15,23,42,0.18)" stroke="#eab308" stroke-width="1.4" stroke-dasharray="7 6"/>
  <text x="54.0" y="460.0" class="section">AMQP SPINE</text>
  <text x="54.0" y="480.0" class="section-sub">RabbitMQ · durable</text>
  <rect x="36.0" y="630.0" width="980.0" height="150.0" rx="16.0" fill="rgba(15,23,42,0.18)" stroke="#a855f7" stroke-width="1.4" stroke-dasharray="7 6"/>
  <text x="54.0" y="654.0" class="section">L3  WORKERS + FAN-OUT</text>
  <text x="54.0" y="674.0" class="section-sub">compute offload · realtime push</text>
  <rect x="36.0" y="816.0" width="980.0" height="188.0" rx="16.0" fill="rgba(15,23,42,0.18)" stroke="#10b981" stroke-width="1.4" stroke-dasharray="7 6"/>
  <text x="54.0" y="840.0" class="section">L4  FOUNDATION</text>
  <text x="54.0" y="860.0" class="section-sub">bounded-context data · object store · runtime</text>
  <rect x="1044.0" y="250.0" width="280.0" height="388.0" rx="16.0" fill="rgba(15,23,42,0.30)" stroke="#475569" stroke-width="1.4" stroke-dasharray="7 6"/>
  <text x="1062.0" y="274.0" class="section">HEXAGON ZOOM</text>
  <text x="1062.0" y="294.0" class="section-sub">ports &amp; adapters (recording-svc)</text>
  <path d="M 520.0,186.0 L 420.0,196.0 L 420.0,230.0 L 175.0,230.0 L 175.0,286.0" fill="none" stroke="#38bdf8" stroke-width="2.3" marker-end="url(#arrowC)"/>
  <path d="M 520.0,186.0 L 490.0,196.0 L 490.0,240.0 L 501.0,240.0 L 501.0,286.0" fill="none" stroke="#38bdf8" stroke-width="2.3" marker-end="url(#arrowC)"/>
  <path d="M 520.0,186.0 L 600.0,196.0 L 600.0,240.0 L 770.0,240.0 L 770.0,286.0 L 832.0,286.0" fill="none" stroke="#38bdf8" stroke-width="2.3" marker-end="url(#arrowC)"/>
  <path d="M 680.0,156.0 L 1010.0,156.0 L 1010.0,640.0 L 560.0,640.0 L 560.0,670.0 L 501.0,670.0" fill="none" stroke="#38bdf8" stroke-width="2.3" marker-end="url(#arrowC)"/>
  <path d="M 520.0,186.0 L 640.0,196.0 L 640.0,222.0 L 900.0,222.0 L 900.0,612.0 L 832.0,612.0 L 832.0,650.0" fill="none" stroke="#f59e0b" stroke-width="2.3" marker-end="url(#arrowF)" stroke-dasharray="6,4"/>
  <path d="M 175.0,364.0 L 145.0,364.0 L 145.0,850.0" fill="none" stroke="#38bdf8" stroke-width="2.3" marker-end="url(#arrowC)"/>
  <path d="M 501.0,364.0 L 331.0,364.0 L 331.0,850.0" fill="none" stroke="#38bdf8" stroke-width="2.3" marker-end="url(#arrowC)"/>
  <path d="M 832.0,364.0 L 525.0,364.0 L 525.0,850.0" fill="none" stroke="#38bdf8" stroke-width="2.3" marker-end="url(#arrowC)"/>
  <path d="M 832.0,364.0 L 726.0,380.0 L 726.0,850.0" fill="none" stroke="#fb7185" stroke-width="2.3" marker-end="url(#arrowE)"/>
  <path d="M 175.0,364.0 L 235.0,364.0 L 235.0,482.0 L 331.0,482.0" fill="none" stroke="#f97316" stroke-width="2.3" marker-end="url(#arrowG)" stroke-dasharray="6,4"/>
  <path d="M 501.0,364.0 L 420.0,364.0 L 420.0,482.0 L 331.0,482.0" fill="none" stroke="#f97316" stroke-width="2.3" marker-end="url(#arrowG)" stroke-dasharray="6,4"/>
  <path d="M 832.0,364.0 L 820.0,410.0 L 820.0,460.0 L 500.0,460.0 L 500.0,482.0 L 331.0,482.0" fill="none" stroke="#f97316" stroke-width="2.3" marker-end="url(#arrowG)" stroke-dasharray="6,4"/>
  <path d="M 396.0,708.0 L 330.0,708.0 L 330.0,552.0 L 331.0,552.0" fill="none" stroke="#f97316" stroke-width="2.3" marker-end="url(#arrowG)" stroke-dasharray="6,4"/>
  <path d="M 566.0,517.0 L 566.0,540.0 L 600.0,540.0 L 600.0,706.0 L 740.0,706.0" fill="none" stroke="#f59e0b" stroke-width="2.3" marker-end="url(#arrowF)" stroke-dasharray="6,4"/>
  <path d="M 832.0,364.0 L 900.0,380.0 L 900.0,430.0 L 793.0,430.0 L 793.0,482.0" fill="none" stroke="#a855f7" stroke-width="2.3" marker-end="url(#arrowA)"/>
  <path d="M 793.0,552.0 L 700.0,552.0 L 700.0,600.0 L 185.0,600.0 L 185.0,666.0" fill="none" stroke="#a855f7" stroke-width="2.3" marker-end="url(#arrowA)"/>
  <path d="M 185.0,750.0 L 185.0,902.0 L 642.0,902.0" fill="none" stroke="#fb7185" stroke-width="2.3" marker-end="url(#arrowE)"/>
  <path d="M 300.0,708.0 L 330.0,708.0 L 330.0,800.0 L 1008.0,800.0 L 1008.0,880.0 L 838.0,880.0" fill="none" stroke="#38bdf8" stroke-width="2.3" marker-end="url(#arrowC)"/>
  <path d="M 1184.0,356.0 L 1184.0,410.0" fill="none" stroke="#fb7185" stroke-width="2.3" marker-end="url(#arrowE)"/>
  <path d="M 1184.0,480.0 L 1184.0,540.0" fill="none" stroke="#fb7185" stroke-width="2.3" marker-end="url(#arrowE)"/>
  <rect x="360.0" y="126.0" width="320.0" height="60.0" rx="10.0" fill="#1e3a5f" stroke="#3b82f6" stroke-width="1.8" filter="url(#glowBlue)"/>
  <text x="520.0" y="156.0" text-anchor="middle" class="node-title">Next.js 16 Studio</text>
  <text x="520.0" y="178.0" text-anchor="middle" class="node-sub">browser UI · REST + WebSocket client</text>
  <rect x="70.0" y="286.0" width="210.0" height="78.0" rx="10.0" fill="#1c1917" stroke="#f97316" stroke-width="2.0"/>
  <rect x="76.0" y="292.0" width="198.0" height="66.0" rx="7.0" fill="none" stroke="#f97316" stroke-width="1.2" opacity="0.65"/>
  <text x="175.0" y="325.0" text-anchor="middle" class="node-title">user-service</text>
  <text x="175.0" y="347.0" text-anchor="middle" class="node-sub">Node/Express · IAM JWT+bcrypt</text>
  <rect x="396.0" y="286.0" width="210.0" height="78.0" rx="10.0" fill="#1c1917" stroke="#f97316" stroke-width="2.0"/>
  <rect x="402.0" y="292.0" width="198.0" height="66.0" rx="7.0" fill="none" stroke="#f97316" stroke-width="1.2" opacity="0.65"/>
  <text x="501.0" y="325.0" text-anchor="middle" class="node-title">session-service</text>
  <text x="501.0" y="347.0" text-anchor="middle" class="node-sub">Node/Express · WAITING to RECORDING</text>
  <rect x="722.0" y="286.0" width="220.0" height="78.0" rx="10.0" fill="#1c1917" stroke="#f97316" stroke-width="2.0"/>
  <rect x="728.0" y="292.0" width="208.0" height="66.0" rx="7.0" fill="none" stroke="#f97316" stroke-width="1.2" opacity="0.65"/>
  <text x="832.0" y="325.0" text-anchor="middle" class="node-title">media-recording-service</text>
  <text x="832.0" y="347.0" text-anchor="middle" class="node-sub">Python/FastAPI · chunk upload + WebRTC</text>
  <rect x="96.0" y="482.0" width="470.0" height="70.0" rx="10.0" fill="#3f2a00" stroke="#eab308" stroke-width="2.0"/>
  <text x="331.0" y="517.0" text-anchor="middle" class="node-title">domain.events  ·  TOPIC EXCHANGE</text>
  <text x="331.0" y="539.0" text-anchor="middle" class="node-sub">durable · user/session/recording/processing.* publish, bind *.*</text>
  <rect x="610.0" y="482.0" width="366.0" height="70.0" rx="10.0" fill="#3f2a00" stroke="#eab308" stroke-width="2.0"/>
  <text x="793.0" y="517.0" text-anchor="middle" class="node-title">media.processing.requests  ·  WORK QUEUE</text>
  <text x="793.0" y="539.0" text-anchor="middle" class="node-sub">default exchange · point-to-point · prefetch=2</text>
  <rect x="70.0" y="666.0" width="230.0" height="84.0" rx="10.0" fill="#1c1917" stroke="#f97316" stroke-width="1.8" filter="url(#glowOrange)"/>
  <text x="185.0" y="708.0" text-anchor="middle" class="node-title">media-processing-worker</text>
  <text x="185.0" y="730.0" text-anchor="middle" class="node-sub">Python headless · FFmpeg stitch/master to mp3</text>
  <rect x="396.0" y="670.0" width="210.0" height="76.0" rx="10.0" fill="#1c1917" stroke="#f97316" stroke-width="2.0"/>
  <rect x="402.0" y="676.0" width="198.0" height="64.0" rx="7.0" fill="none" stroke="#f97316" stroke-width="1.2" opacity="0.65"/>
  <text x="501.0" y="708.0" text-anchor="middle" class="node-title">media-processing-service</text>
  <text x="501.0" y="730.0" text-anchor="middle" class="node-sub">Python/FastAPI · admin API</text>
  <rect x="740.0" y="650.0" width="184.0" height="112.0" rx="10.0" fill="#111827" stroke="#334155" stroke-width="2.0"/>
  <rect x="790.0" y="676.0" width="84" height="84" rx="18" fill="#1e293b" stroke="#334155" stroke-width="1.8"/>
  <rect x="806.0" y="692.0" width="52" height="22" rx="6" fill="#0f172a" stroke="#475569" stroke-width="1.2"/>
  <circle cx="820.0" cy="703.0" r="5" fill="#a855f7"/>
  <circle cx="844.0" cy="703.0" r="5" fill="#a855f7"/>
  <rect x="818.0" y="722.0" width="28" height="6" rx="3" fill="#334155"/>
  <line x1="832.0" y1="672.0" x2="832.0" y2="658.0" stroke="#a855f7" stroke-width="3"/>
  <circle cx="832.0" cy="654.0" r="5" fill="#a855f7"/>
  <text x="832.0" y="784.0" text-anchor="middle" class="node-title">notification-service</text>
  <text x="832.0" y="804.0" text-anchor="middle" class="node-sub">Node/ws · event to WS fan-out · NO datastore</text>
  <ellipse cx="145.0" cy="863.0" rx="37.5" ry="13.0" fill="#052e16" stroke="#10b981" stroke-width="2.2"/>
  <rect x="70.0" y="863.0" width="150.0" height="78.0" fill="#052e16" stroke="#10b981" stroke-width="2.2"/>
  <ellipse cx="145.0" cy="941.0" rx="37.5" ry="13.0" fill="#052e16" stroke="#10b981" stroke-width="2.2"/>
  <ellipse cx="145.0" cy="889.52" rx="37.5" ry="13.0" fill="none" stroke="#10b981" stroke-opacity="0.45" stroke-width="1.2"/>
  <ellipse cx="145.0" cy="912.4" rx="37.5" ry="13.0" fill="none" stroke="#10b981" stroke-opacity="0.25" stroke-width="1.2"/>
  <text x="145.0" y="896.0" text-anchor="middle" class="node-title">Postgres</text>
  <text x="145.0" y="920.0" text-anchor="middle" class="node-sub">users</text>
  <ellipse cx="331.0" cy="863.0" rx="39.5" ry="13.0" fill="#052e16" stroke="#10b981" stroke-width="2.2"/>
  <rect x="252.0" y="863.0" width="158.0" height="78.0" fill="#052e16" stroke="#10b981" stroke-width="2.2"/>
  <ellipse cx="331.0" cy="941.0" rx="39.5" ry="13.0" fill="#052e16" stroke="#10b981" stroke-width="2.2"/>
  <ellipse cx="331.0" cy="889.52" rx="39.5" ry="13.0" fill="none" stroke="#10b981" stroke-opacity="0.45" stroke-width="1.2"/>
  <ellipse cx="331.0" cy="912.4" rx="39.5" ry="13.0" fill="none" stroke="#10b981" stroke-opacity="0.25" stroke-width="1.2"/>
  <text x="331.0" y="896.0" text-anchor="middle" class="node-title">Postgres</text>
  <text x="331.0" y="920.0" text-anchor="middle" class="node-sub">sessions, participants</text>
  <ellipse cx="525.0" cy="863.0" rx="41.5" ry="13.0" fill="#052e16" stroke="#10b981" stroke-width="2.2"/>
  <rect x="442.0" y="863.0" width="166.0" height="78.0" fill="#052e16" stroke="#10b981" stroke-width="2.2"/>
  <ellipse cx="525.0" cy="941.0" rx="41.5" ry="13.0" fill="#052e16" stroke="#10b981" stroke-width="2.2"/>
  <ellipse cx="525.0" cy="889.52" rx="41.5" ry="13.0" fill="none" stroke="#10b981" stroke-opacity="0.45" stroke-width="1.2"/>
  <ellipse cx="525.0" cy="912.4" rx="41.5" ry="13.0" fill="none" stroke="#10b981" stroke-opacity="0.25" stroke-width="1.2"/>
  <text x="525.0" y="896.0" text-anchor="middle" class="node-title">Postgres</text>
  <text x="525.0" y="920.0" text-anchor="middle" class="node-sub">recording_metadata, chunks</text>
  <ellipse cx="726.0" cy="863.0" rx="42.0" ry="13.0" fill="#052e16" stroke="#10b981" stroke-width="2.2"/>
  <rect x="642.0" y="863.0" width="168.0" height="78.0" fill="#052e16" stroke="#10b981" stroke-width="2.2"/>
  <ellipse cx="726.0" cy="941.0" rx="42.0" ry="13.0" fill="#052e16" stroke="#10b981" stroke-width="2.2"/>
  <ellipse cx="726.0" cy="889.52" rx="42.0" ry="13.0" fill="none" stroke="#10b981" stroke-opacity="0.45" stroke-width="1.2"/>
  <ellipse cx="726.0" cy="912.4" rx="42.0" ry="13.0" fill="none" stroke="#10b981" stroke-opacity="0.25" stroke-width="1.2"/>
  <text x="726.0" y="896.0" text-anchor="middle" class="node-title">MinIO object store</text>
  <text x="726.0" y="920.0" text-anchor="middle" class="node-sub">chunk.webm to processed/*.mp3</text>
  <rect x="838.0" y="858.0" width="150.0" height="44.0" rx="10.0" fill="#0f172a" stroke="#475569" stroke-width="1.8"/>
  <text x="913.0" y="880.0" text-anchor="middle" class="node-title">FFmpeg runtime</text>
  <rect x="838.0" y="916.0" width="150.0" height="44.0" rx="10.0" fill="#0f172a" stroke="#475569" stroke-width="1.8"/>
  <text x="913.0" y="938.0" text-anchor="middle" class="node-title">Docker Compose</text>
  <rect x="1064.0" y="300.0" width="240.0" height="56.0" rx="10.0" fill="#1e3a5f" stroke="#3b82f6" stroke-width="1.8"/>
  <text x="1184.0" y="328.0" text-anchor="middle" class="node-title">Inbound adapters</text>
  <text x="1184.0" y="350.0" text-anchor="middle" class="node-sub">REST  ·  AMQP consumer</text>
  <rect x="1090.0" y="410.0" width="188.0" height="70.0" rx="10.0" fill="#1e1b4b" stroke="#a855f7" stroke-width="2.0"/>
  <rect x="1096.0" y="416.0" width="176.0" height="58.0" rx="7.0" fill="none" stroke="#a855f7" stroke-width="1.2" opacity="0.65"/>
  <text x="1184.0" y="445.0" text-anchor="middle" class="node-title">Domain core</text>
  <text x="1184.0" y="467.0" text-anchor="middle" class="node-sub">ports &amp; adapters</text>
  <rect x="1064.0" y="540.0" width="240.0" height="70.0" rx="10.0" fill="#052e16" stroke="#10b981" stroke-width="1.8"/>
  <text x="1184.0" y="575.0" text-anchor="middle" class="node-title">Outbound adapters</text>
  <text x="1184.0" y="597.0" text-anchor="middle" class="node-sub">Postgres  ·  AMQP pub  ·  S3</text>
  <rect x="276.5" y="200.0" width="42" height="20" rx="6" fill="#0f172a" opacity="0.92"/>
  <text x="297.5" y="214.0" text-anchor="middle" class="arrow-label">REST</text>
  <rect x="451.0" y="204.0" width="42" height="20" rx="6" fill="#0f172a" opacity="0.92"/>
  <text x="472.0" y="218.0" text-anchor="middle" class="arrow-label">REST</text>
  <rect x="664.0" y="210.0" width="42" height="20" rx="6" fill="#0f172a" opacity="0.92"/>
  <text x="685.0" y="224.0" text-anchor="middle" class="arrow-label">REST</text>
  <rect x="943.0" y="384.0" width="98" height="20" rx="6" fill="#0f172a" opacity="0.92"/>
  <text x="992.0" y="398.0" text-anchor="middle" class="arrow-label">REST (admin)</text>
  <rect x="843.5" y="403.0" width="77" height="20" rx="6" fill="#0f172a" opacity="0.92"/>
  <text x="882.0" y="417.0" text-anchor="middle" class="arrow-label">WebSocket</text>
  <rect x="666.0" y="601.0" width="84" height="20" rx="6" fill="#0f172a" opacity="0.92"/>
  <text x="708.0" y="615.0" text-anchor="middle" class="arrow-label">chunk.webm</text>
  <rect x="189.0" y="409.0" width="56" height="20" rx="6" fill="#0f172a" opacity="0.92"/>
  <text x="217.0" y="423.0" text-anchor="middle" class="arrow-label">user.*</text>
  <rect x="363.5" y="409.0" width="77" height="20" rx="6" fill="#0f172a" opacity="0.92"/>
  <text x="402.0" y="423.0" text-anchor="middle" class="arrow-label">session.*</text>
  <rect x="780.5" y="373.0" width="91" height="20" rx="6" fill="#0f172a" opacity="0.92"/>
  <text x="826.0" y="387.0" text-anchor="middle" class="arrow-label">recording.*</text>
  <rect x="281.0" y="616.0" width="98" height="20" rx="6" fill="#0f172a" opacity="0.92"/>
  <text x="330.0" y="630.0" text-anchor="middle" class="arrow-label">processing.*</text>
  <rect x="635.0" y="708.0" width="70" height="20" rx="6" fill="#0f172a" opacity="0.92"/>
  <text x="670.0" y="722.0" text-anchor="middle" class="arrow-label">bind *.*</text>
  <rect x="801.0" y="416.0" width="91" height="20" rx="6" fill="#0f172a" opacity="0.92"/>
  <text x="846.5" y="430.0" text-anchor="middle" class="arrow-label">publish job</text>
  <rect x="372.5" y="570.0" width="140" height="20" rx="6" fill="#0f172a" opacity="0.92"/>
  <text x="442.5" y="584.0" text-anchor="middle" class="arrow-label">consume prefetch=2</text>
  <rect x="361.0" y="888.0" width="105" height="20" rx="6" fill="#0f172a" opacity="0.92"/>
  <text x="413.5" y="902.0" text-anchor="middle" class="arrow-label">stitch to mp3</text>
  <rect x="1034.0" y="686.0" width="324" height="134" rx="10" fill="rgba(15,23,42,0.82)" opacity="0.88"/>
  <line x1="1044.0" y1="700.0" x2="1074.0" y2="700.0" stroke="#38bdf8" stroke-width="2.3" marker-end="url(#arrowC)"/>
  <text x="1084.0" y="704.0" class="legend">REST / read path</text>
  <line x1="1044.0" y1="722.0" x2="1074.0" y2="722.0" stroke="#fb7185" stroke-width="2.3" marker-end="url(#arrowE)"/>
  <text x="1084.0" y="726.0" class="legend">media bytes (chunk / mp3)</text>
  <line x1="1044.0" y1="744.0" x2="1074.0" y2="744.0" stroke="#a855f7" stroke-width="2.3" marker-end="url(#arrowA)"/>
  <text x="1084.0" y="748.0" class="legend">work-queue job (p2p, prefetch=2)</text>
  <line x1="1044.0" y1="766.0" x2="1074.0" y2="766.0" stroke="#f97316" stroke-width="2.3" marker-end="url(#arrowG)"/>
  <text x="1084.0" y="770.0" class="legend">domain.events publish (choreography)</text>
  <line x1="1044.0" y1="788.0" x2="1074.0" y2="788.0" stroke="#f59e0b" stroke-width="2.3" marker-end="url(#arrowF)"/>
  <text x="1084.0" y="792.0" class="legend">WebSocket / event fan-out</text>
  <text x="42.0" y="1184.0" class="footnote">Railway + Vercel = documented deploy target  ·  not drawn: Redis (unused), MongoDB (vestigial), API gateway, service mesh, SAGA, CQRS</text>
</svg>