<svg xmlns="http://www.w3.org/2000/svg" viewBox="0 0 1200 1040" width="1200" height="1040">
  <defs>
    <marker id="arrowA" markerWidth="10" markerHeight="7" refX="9" refY="3.5" orient="auto">
      <polygon points="0 0, 10 3.5, 0 7" fill="#a855f7"/>
    </marker>
    <marker id="arrowB" markerWidth="10" markerHeight="7" refX="9" refY="3.5" orient="auto">
      <polygon points="0 0, 10 3.5, 0 7" fill="#22c55e"/>
    </marker>
    <marker id="arrowC" markerWidth="10" markerHeight="7" refX="9" refY="3.5" orient="auto">
      <polygon points="0 0, 10 3.5, 0 7" fill="#38bdf8"/>
    </marker>
    <marker id="arrowE" markerWidth="10" markerHeight="7" refX="9" refY="3.5" orient="auto">
      <polygon points="0 0, 10 3.5, 0 7" fill="#fb7185"/>
    </marker>
    <marker id="arrowF" markerWidth="10" markerHeight="7" refX="9" refY="3.5" orient="auto">
      <polygon points="0 0, 10 3.5, 0 7" fill="#f59e0b"/>
    </marker>
    <marker id="arrowG" markerWidth="10" markerHeight="7" refX="9" refY="3.5" orient="auto">
      <polygon points="0 0, 10 3.5, 0 7" fill="#f97316"/>
    </marker>
    <marker id="arrowH" markerWidth="10" markerHeight="7" refX="9" refY="3.5" orient="auto">
      <polygon points="0 0, 10 3.5, 0 7" fill="#94a3b8"/>
    </marker>
    <linearGradient id="terminalGradient" x1="0%" y1="0%" x2="100%" y2="100%">
      <stop offset="0%" stop-color="#0f0f1a"/>
      <stop offset="100%" stop-color="#1a1a2e"/>
    </linearGradient>
    <filter id="glowBlue" x="-30%" y="-30%" width="160%" height="160%">
      <feDropShadow dx="0" dy="0" stdDeviation="5" flood-color="#3b82f6" flood-opacity="0.65"/>
    </filter>
    <filter id="glowPurple" x="-30%" y="-30%" width="160%" height="160%">
      <feDropShadow dx="0" dy="0" stdDeviation="5" flood-color="#a855f7" flood-opacity="0.72"/>
    </filter>
    <filter id="glowGreen" x="-30%" y="-30%" width="160%" height="160%">
      <feDropShadow dx="0" dy="0" stdDeviation="5" flood-color="#22c55e" flood-opacity="0.62"/>
    </filter>
    <filter id="glowOrange" x="-30%" y="-30%" width="160%" height="160%">
      <feDropShadow dx="0" dy="0" stdDeviation="5" flood-color="#f97316" flood-opacity="0.62"/>
    </filter>
    <style>
    text { font-family: 'SF Mono', 'Fira Code', Menlo, 'Microsoft YaHei', 'SimHei', monospace; }
    .title { font-size: 30px; font-weight: 700; fill: #e2e8f0; }
    .subtitle { font-size: 14px; font-weight: 500; fill: #94a3b8; }
    .section { font-size: 13px; font-weight: 700; fill: #38bdf8; letter-spacing: 1.4px; }
    .section-sub { font-size: 12px; font-weight: 500; fill: #64748b; }
    .node-title { font-size: 18px; font-weight: 700; fill: #e2e8f0; }
    .node-sub { font-size: 12px; font-weight: 500; fill: #94a3b8; }
    .node-type { font-size: 12px; font-weight: 700; fill: #64748b; letter-spacing: 0.08em; }
    .arrow-label { font-size: 12px; font-weight: 600; fill: #cbd5e1; }
    .legend { font-size: 12px; font-weight: 500; fill: #94a3b8; }
    .footnote { font-size: 12px; font-weight: 500; fill: #64748b; }
    </style>
  </defs>
  <rect width="1200.0" height="1040.0" fill="url(#terminalGradient)"/>
  <circle cx="20.0" cy="20" r="5.5" fill="#ef4444"/>
  <circle cx="38.0" cy="20" r="5.5" fill="#f59e0b"/>
  <circle cx="56.0" cy="20" r="5.5" fill="#10b981"/>
  <text x="600.0" y="24" text-anchor="middle" font-size="11.0" font-weight="600" fill="#64748b">PERSONAL AGENTIC OS + MEng · evidence-grounded</text>
  <text x="1172.0" y="24" text-anchor="end" font-size="11.0" font-weight="600" fill="#64748b">style-2-dark-terminal</text>
  <text x="600.0" y="56" text-anchor="middle" class="title">Personal Agentic OS</text>
  <text x="600.0" y="82" text-anchor="middle" class="subtitle">Two real dispatchers · hex worker ring · local-GPU foundation · vault long-term memory</text>
  <rect x="36.0" y="96.0" width="1128.0" height="104.0" rx="16.0" fill="rgba(15,23,42,0.18)" stroke="#3b82f6" stroke-width="1.4" stroke-dasharray="7 6"/>
  <text x="54.0" y="120.0" class="section">ACCESS / CONSUMER</text>
  <rect x="36.0" y="222.0" width="1128.0" height="168.0" rx="16.0" fill="rgba(15,23,42,0.18)" stroke="#f97316" stroke-width="1.4" stroke-dasharray="7 6"/>
  <text x="54.0" y="246.0" class="section">ORCHESTRATION — TWO DISPATCHERS</text>
  <rect x="36.0" y="412.0" width="760.0" height="232.0" rx="16.0" fill="rgba(15,23,42,0.18)" stroke="#a855f7" stroke-width="1.4" stroke-dasharray="7 6"/>
  <text x="54.0" y="436.0" class="section">WORKER RING</text>
  <rect x="812.0" y="412.0" width="352.0" height="232.0" rx="16.0" fill="rgba(15,23,42,0.18)" stroke="#eab308" stroke-width="1.4" stroke-dasharray="7 6"/>
  <text x="830.0" y="436.0" class="section">IOS INGEST LANE</text>
  <rect x="36.0" y="666.0" width="760.0" height="256.0" rx="16.0" fill="rgba(15,23,42,0.18)" stroke="#10b981" stroke-width="1.4" stroke-dasharray="7 6"/>
  <text x="54.0" y="690.0" class="section">FOUNDATION — STORAGE + LOCAL GPU</text>
  <rect x="812.0" y="666.0" width="352.0" height="256.0" rx="16.0" fill="rgba(15,23,42,0.18)" stroke="#10b981" stroke-width="1.4" stroke-dasharray="7 6"/>
  <text x="830.0" y="690.0" class="section">GPU SLAB + MENG</text>
  <path d="M 236.0,154.0 L 300.0,154.0" fill="none" stroke="#38bdf8" stroke-width="2.3" marker-end="url(#arrowC)"/>
  <path d="M 468.0,154.0 L 1064.0,154.0 L 1064.0,258.0" fill="none" stroke="#38bdf8" stroke-width="2.3" marker-end="url(#arrowC)"/>
  <path d="M 548.0,250.0 L 548.0,210.0 L 660.0,210.0 L 660.0,184.0" fill="none" stroke="#fb7185" stroke-width="2.3" marker-end="url(#arrowE)"/>
  <path d="M 264.0,310.0 L 284.4,310.0 L 449.6,308.0 L 470.0,308.0" fill="none" stroke="#a855f7" stroke-width="2.3" marker-end="url(#arrowA)"/>
  <path d="M 626.0,308.0 L 646.4,308.0 L 665.6,286.0 L 686.0,286.0" fill="none" stroke="#a855f7" stroke-width="2.3" marker-end="url(#arrowA)"/>
  <path d="M 772.0,318.0 L 772.0,332.0" fill="none" stroke="#a855f7" stroke-width="2.3" marker-end="url(#arrowA)"/>
  <path d="M 1064.0,342.0 L 1064.0,400.0 L 915.0,400.0 L 915.0,448.0" fill="none" stroke="#fb7185" stroke-width="2.3" marker-end="url(#arrowE)"/>
  <path d="M 548.0,366.0 L 508.0,366.0 L 508.0,420.0 L 148.0,420.0 L 148.0,448.0" fill="none" stroke="#f97316" stroke-width="2.3" marker-end="url(#arrowG)"/>
  <path d="M 548.0,366.0 L 530.0,366.0 L 530.0,432.0 L 368.0,432.0 L 368.0,448.0" fill="none" stroke="#f97316" stroke-width="2.3" marker-end="url(#arrowG)"/>
  <path d="M 548.0,366.0 L 588.0,366.0 L 588.0,552.0" fill="none" stroke="#f97316" stroke-width="2.3" marker-end="url(#arrowG)"/>
  <path d="M 470.0,308.0 L 470.0,330.0 L 440.0,330.0 L 440.0,536.0 L 368.0,536.0 L 368.0,552.0" fill="none" stroke="#f97316" stroke-width="2.3" marker-end="url(#arrowG)"/>
  <path d="M 548.0,366.0 L 568.0,366.0 L 568.0,440.0 L 588.0,440.0 L 588.0,452.0" fill="none" stroke="#f97316" stroke-width="2.3" marker-end="url(#arrowG)"/>
  <path d="M 164.0,358.0 L 120.0,358.0 L 120.0,584.0 L 70.0,584.0" fill="none" stroke="#a855f7" stroke-width="2.3" marker-end="url(#arrowA)"/>
  <path d="M 368.0,512.0 L 330.0,512.0 L 330.0,640.0 L 164.0,640.0 L 164.0,854.0" fill="none" stroke="#a855f7" stroke-width="2.3" marker-end="url(#arrowA)"/>
  <path d="M 446.0,480.0 L 446.0,468.0 L 770.0,468.0 L 770.0,684.0 L 990.0,684.0 L 990.0,700.0" fill="none" stroke="#fb7185" stroke-width="2.3" marker-end="url(#arrowE)"/>
  <path d="M 446.0,584.0 L 780.0,584.0 L 780.0,732.0 L 836.0,732.0" fill="none" stroke="#fb7185" stroke-width="2.3" marker-end="url(#arrowE)"/>
  <path d="M 148.0,616.0 L 148.0,676.0 L 530.0,676.0 L 530.0,690.0" fill="none" stroke="#fb7185" stroke-width="2.3" marker-end="url(#arrowE)"/>
  <path d="M 530.0,690.0 L 490.0,690.0 L 490.0,436.0 L 148.0,436.0 L 148.0,512.0" fill="none" stroke="#38bdf8" stroke-width="2.3" marker-end="url(#arrowC)"/>
  <path d="M 588.0,616.0 L 622.0,616.0 L 622.0,640.0 L 948.0,640.0 L 948.0,786.0 L 910.0,786.0 L 910.0,848.0" fill="none" stroke="#38bdf8" stroke-width="2.3" marker-end="url(#arrowC)"/>
  <path d="M 915.0,508.0 L 860.0,508.0 L 860.0,650.0 L 710.0,650.0 L 710.0,712.0" fill="none" stroke="#f59e0b" stroke-width="2.3" marker-end="url(#arrowF)" stroke-dasharray="6,4"/>
  <path d="M 915.0,508.0 L 915.0,556.0" fill="none" stroke="#fb7185" stroke-width="2.3" marker-end="url(#arrowE)"/>
  <path d="M 994.0,478.0 L 1014.0,478.0" fill="none" stroke="#f59e0b" stroke-width="2.3" marker-end="url(#arrowF)" stroke-dasharray="6,4"/>
  <path d="M 994.0,586.0 L 1014.0,586.0" fill="none" stroke="#f59e0b" stroke-width="2.3" marker-end="url(#arrowF)" stroke-dasharray="6,4"/>
  <path d="M 915.0,556.0 L 915.0,654.0 L 530.0,654.0 L 530.0,690.0" fill="none" stroke="#fb7185" stroke-width="2.3" marker-end="url(#arrowE)"/>
  <path d="M 990.0,836.0 L 910.0,836.0 L 910.0,848.0" fill="none" stroke="#a855f7" stroke-width="2.3" marker-end="url(#arrowA)"/>
  <path d="M 990.0,836.0 L 1070.0,836.0 L 1070.0,848.0" fill="none" stroke="#a855f7" stroke-width="2.3" marker-end="url(#arrowA)"/>
  <path d="M 410.0,762.0 L 419.6,762.0 L 419.6,764.0 L 440.0,764.0" fill="none" stroke="#38bdf8" stroke-width="2.3" marker-end="url(#arrowC)"/>
  <path d="M 143.0,824.0 L 143.0,900.0 L 530.0,900.0 L 530.0,838.0" fill="none" stroke="#38bdf8" stroke-width="2.3" marker-end="url(#arrowC)"/>
  <rect x="60.0" y="124.0" width="176.0" height="60.0" rx="10.0" fill="#1e3a5f" stroke="#3b82f6" stroke-width="1.8"/>
  <text x="148.0" y="154.0" text-anchor="middle" class="node-title">Expo / RN iOS app</text>
  <text x="148.0" y="176.0" text-anchor="middle" class="node-sub">capture · inbox · chat-SSE</text>
  <path d="M 322.0 122.0 L 446.0 122.0 L 468.0 154.0 L 446.0 186.0 L 322.0 186.0 L 300.0 154.0 Z" fill="#1e3a5f" stroke="#3b82f6" stroke-width="2.0"/>
  <text x="384.0" y="154.0" text-anchor="middle" class="node-title">Tailscale mesh</text>
  <text x="384.0" y="176.0" text-anchor="middle" class="node-sub">sole transport</text>
  <path d="M 570.0 124.0 L 750.0 124.0 Q 760.0 124.0 760.0 134.0 L 760.0 174.0 Q 760.0 184.0 750.0 184.0 L 586.0 184.0 L 572.0 202.0 L 576.0 184.0 L 570.0 184.0 Q 560.0 184.0 560.0 174.0 L 560.0 134.0 Q 560.0 124.0 570.0 124.0 Z" fill="#0f172a" stroke="#3b82f6" stroke-width="2.0"/>
  <text x="660.0" y="154.0" text-anchor="middle" class="node-title">Email briefings out</text>
  <text x="660.0" y="176.0" text-anchor="middle" class="node-sub">morning · EOD · night</text>
  <rect x="836.0" y="124.0" width="180.0" height="60.0" rx="10.0" fill="#0f172a" stroke="#475569" stroke-width="1.8"/>
  <text x="926.0" y="154.0" text-anchor="middle" class="node-title">Audit dashboard</text>
  <text x="926.0" y="176.0" text-anchor="middle" class="node-sub">Tailscale-only UI</text>
  <rect x="64.0" y="262.0" width="200.0" height="96.0" rx="10.0" fill="#1c1917" stroke="#f97316" stroke-width="2.0" filter="url(#glowOrange)"/>
  <rect x="70.0" y="268.0" width="188.0" height="84.0" rx="7.0" fill="none" stroke="#f97316" stroke-width="1.2" opacity="0.65"/>
  <text x="164.0" y="310.0" text-anchor="middle" class="node-title">systemd timers (20)</text>
  <text x="164.0" y="332.0" text-anchor="middle" class="node-sub">real scheduler + 30s watcher gate</text>
  <rect x="470.0" y="250.0" width="156.0" height="116.0" rx="10.0" fill="#111827" stroke="#334155" stroke-width="2.0"/>
  <rect x="506.0" y="278.0" width="84" height="84" rx="18" fill="#1e293b" stroke="#334155" stroke-width="1.8"/>
  <rect x="522.0" y="294.0" width="52" height="22" rx="6" fill="#0f172a" stroke="#475569" stroke-width="1.2"/>
  <circle cx="536.0" cy="305.0" r="5" fill="#a855f7"/>
  <circle cx="560.0" cy="305.0" r="5" fill="#a855f7"/>
  <rect x="534.0" y="324.0" width="28" height="6" rx="3" fill="#334155"/>
  <line x1="548.0" y1="274.0" x2="548.0" y2="260.0" stroke="#a855f7" stroke-width="3"/>
  <circle cx="548.0" cy="256.0" r="5" fill="#a855f7"/>
  <text x="548.0" y="388.0" text-anchor="middle" class="node-title">Master Orchestrator</text>
  <text x="548.0" y="408.0" text-anchor="middle" class="node-sub">Claude Code · Agent fan-out ·5</text>
  <path d="M 686.0 272.0 L 707.6 272.0 L 717.32 254.0 L 740.0 254.0 L 858.0 254.0 L 858.0 318.0 L 686.0 318.0 Z" fill="#1c1917" stroke="#f97316" stroke-width="2.0"/>
  <line x1="708.0" y1="296.0" x2="836.0" y2="296.0" stroke="#fdba74" stroke-opacity="0.35" stroke-width="1.2"/>
  <line x1="708.0" y1="310.0" x2="836.0" y2="310.0" stroke="#fdba74" stroke-opacity="0.35" stroke-width="1.2"/>
  <line x1="708.0" y1="324.0" x2="836.0" y2="324.0" stroke="#fdba74" stroke-opacity="0.35" stroke-width="1.2"/>
  <text x="772.0" y="344.0" text-anchor="middle" class="node-title">master-queue</text>
  <text x="772.0" y="362.0" text-anchor="middle" class="node-sub">inbox/processing/done/failed</text>
  <rect x="686.0" y="332.0" width="172.0" height="40.0" rx="10.0" fill="#1c1917" stroke="#f97316" stroke-width="1.8"/>
  <text x="772.0" y="352.0" text-anchor="middle" class="node-title">domain-tier policy</text>
  <rect x="980.0" y="258.0" width="168.0" height="84.0" rx="10.0" fill="#1c1917" stroke="#f97316" stroke-width="1.8"/>
  <text x="1064.0" y="300.0" text-anchor="middle" class="node-title">FastAPI bridge</text>
  <text x="1064.0" y="322.0" text-anchor="middle" class="node-sub">:bearer · uvicorn</text>
  <path d="M 92.0 448.0 L 204.0 448.0 L 226.0 480.0 L 204.0 512.0 L 92.0 512.0 L 70.0 480.0 Z" fill="#1e1b4b" stroke="#a855f7" stroke-width="2.0"/>
  <text x="148.0" y="480.0" text-anchor="middle" class="node-title">deep-research</text>
  <text x="148.0" y="502.0" text-anchor="middle" class="node-sub">Search</text>
  <path d="M 92.0 552.0 L 204.0 552.0 L 226.0 584.0 L 204.0 616.0 L 92.0 616.0 L 70.0 584.0 Z" fill="#1e1b4b" stroke="#a855f7" stroke-width="2.0"/>
  <text x="148.0" y="584.0" text-anchor="middle" class="node-title">auto-research</text>
  <text x="148.0" y="606.0" text-anchor="middle" class="node-sub">scheduled → vault</text>
  <path d="M 312.0 448.0 L 424.0 448.0 L 446.0 480.0 L 424.0 512.0 L 312.0 512.0 L 290.0 480.0 Z" fill="#1e1b4b" stroke="#a855f7" stroke-width="2.0"/>
  <text x="368.0" y="480.0" text-anchor="middle" class="node-title">builder-pool</text>
  <text x="368.0" y="502.0" text-anchor="middle" class="node-sub">Implementation</text>
  <path d="M 312.0 552.0 L 424.0 552.0 L 446.0 584.0 L 424.0 616.0 L 312.0 616.0 L 290.0 584.0 Z" fill="#1e1b4b" stroke="#a855f7" stroke-width="2.0"/>
  <text x="368.0" y="584.0" text-anchor="middle" class="node-title">autoresearch</text>
  <text x="368.0" y="606.0" text-anchor="middle" class="node-sub">keep / rollback</text>
  <path d="M 532.0 552.0 L 644.0 552.0 L 666.0 584.0 L 644.0 616.0 L 532.0 616.0 L 510.0 584.0 Z" fill="#1e1b4b" stroke="#a855f7" stroke-width="2.0"/>
  <text x="588.0" y="584.0" text-anchor="middle" class="node-title">voice-filter</text>
  <text x="588.0" y="606.0" text-anchor="middle" class="node-sub">local Review</text>
  <rect x="510.0" y="452.0" width="156.0" height="56.0" rx="10.0" fill="#1e1b4b" stroke="#7c3aed" stroke-width="1.8"/>
  <text x="588.0" y="480.0" text-anchor="middle" class="node-title">briefings cluster</text>
  <text x="588.0" y="502.0" text-anchor="middle" class="node-sub">morning/eod/night/idea</text>
  <rect x="836.0" y="448.0" width="158.0" height="60.0" rx="10.0" fill="#0f172a" stroke="#eab308" stroke-width="1.8"/>
  <text x="915.0" y="478.0" text-anchor="middle" class="node-title">arq worker</text>
  <text x="915.0" y="500.0" text-anchor="middle" class="node-sub">iOS ingest · 4 jobs</text>
  <rect x="836.0" y="556.0" width="158.0" height="60.0" rx="10.0" fill="#0f172a" stroke="#eab308" stroke-width="1.8"/>
  <text x="915.0" y="586.0" text-anchor="middle" class="node-title">classifier</text>
  <text x="915.0" y="608.0" text-anchor="middle" class="node-sub">claude-agent-sdk</text>
  <rect x="1014.0" y="448.0" width="134.0" height="60.0" rx="10.0" fill="#0f172a" stroke="#64748b" stroke-width="1.8"/>
  <text x="1081.0" y="478.0" text-anchor="middle" class="node-title">WhisperX·Docling</text>
  <text x="1081.0" y="500.0" text-anchor="middle" class="node-sub">Qwen-VL — roadmap</text>
  <rect x="1014.0" y="556.0" width="134.0" height="60.0" rx="10.0" fill="#0f172a" stroke="#64748b" stroke-width="1.8"/>
  <text x="1081.0" y="586.0" text-anchor="middle" class="node-title">note-watcher</text>
  <text x="1081.0" y="608.0" text-anchor="middle" class="node-sub">1Password — planned</text>
  <ellipse cx="143.0" cy="715.5" rx="39.5" ry="15.5" fill="#052e16" stroke="#10b981" stroke-width="2.2"/>
  <rect x="64.0" y="715.5" width="158.0" height="93.0" fill="#052e16" stroke="#10b981" stroke-width="2.2"/>
  <ellipse cx="143.0" cy="808.5" rx="39.5" ry="15.5" fill="#052e16" stroke="#10b981" stroke-width="2.2"/>
  <ellipse cx="143.0" cy="747.12" rx="39.5" ry="15.5" fill="none" stroke="#10b981" stroke-opacity="0.45" stroke-width="1.2"/>
  <ellipse cx="143.0" cy="774.4" rx="39.5" ry="15.5" fill="none" stroke="#10b981" stroke-opacity="0.25" stroke-width="1.2"/>
  <text x="143.0" y="756.0" text-anchor="middle" class="node-title">LanceDB</text>
  <text x="143.0" y="780.0" text-anchor="middle" class="node-sub">hybrid vector + BM25 RRF</text>
  <ellipse cx="331.0" cy="715.5" rx="39.5" ry="15.5" fill="#052e16" stroke="#10b981" stroke-width="2.2"/>
  <rect x="252.0" y="715.5" width="158.0" height="93.0" fill="#052e16" stroke="#10b981" stroke-width="2.2"/>
  <ellipse cx="331.0" cy="808.5" rx="39.5" ry="15.5" fill="#052e16" stroke="#10b981" stroke-width="2.2"/>
  <ellipse cx="331.0" cy="747.12" rx="39.5" ry="15.5" fill="none" stroke="#10b981" stroke-opacity="0.45" stroke-width="1.2"/>
  <ellipse cx="331.0" cy="774.4" rx="39.5" ry="15.5" fill="none" stroke="#10b981" stroke-opacity="0.25" stroke-width="1.2"/>
  <text x="331.0" y="756.0" text-anchor="middle" class="node-title">3-layer memory</text>
  <text x="331.0" y="780.0" text-anchor="middle" class="node-sub">CLAUDE.md · fact · project</text>
  <ellipse cx="530.0" cy="708.0" rx="45.0" ry="18" fill="#052e16" stroke="#10b981" stroke-width="2.2"/>
  <rect x="440.0" y="708.0" width="180.0" height="112.0" fill="#052e16" stroke="#10b981" stroke-width="2.2"/>
  <ellipse cx="530.0" cy="820.0" rx="45.0" ry="18" fill="#052e16" stroke="#10b981" stroke-width="2.2"/>
  <ellipse cx="530.0" cy="746.24" rx="45.0" ry="18" fill="none" stroke="#10b981" stroke-opacity="0.45" stroke-width="1.2"/>
  <ellipse cx="530.0" cy="778.8" rx="45.0" ry="18" fill="none" stroke="#10b981" stroke-opacity="0.25" stroke-width="1.2"/>
  <text x="530.0" y="758.0" text-anchor="middle" class="node-title">Vault</text>
  <text x="530.0" y="782.0" text-anchor="middle" class="node-sub">long-term memory · RAG corpus</text>
  <ellipse cx="710.0" cy="725.5" rx="31.0" ry="13.5" fill="#0f172a" stroke="#eab308" stroke-width="2.2"/>
  <rect x="648.0" y="725.5" width="124.0" height="81.0" fill="#0f172a" stroke="#eab308" stroke-width="2.2"/>
  <ellipse cx="710.0" cy="806.5" rx="31.0" ry="13.5" fill="#0f172a" stroke="#eab308" stroke-width="2.2"/>
  <ellipse cx="710.0" cy="753.04" rx="31.0" ry="13.5" fill="none" stroke="#eab308" stroke-opacity="0.45" stroke-width="1.2"/>
  <ellipse cx="710.0" cy="776.8" rx="31.0" ry="13.5" fill="none" stroke="#eab308" stroke-opacity="0.25" stroke-width="1.2"/>
  <text x="710.0" y="760.0" text-anchor="middle" class="node-title">Redis</text>
  <text x="710.0" y="784.0" text-anchor="middle" class="node-sub">iOS ingest — NOT dispatcher</text>
  <rect x="64.0" y="854.0" width="200.0" height="42.0" rx="10.0" fill="#0f172a" stroke="#eab308" stroke-width="1.8"/>
  <text x="164.0" y="875.0" text-anchor="middle" class="node-title">human publish gate</text>
  <text x="164.0" y="897.0" text-anchor="middle" class="node-sub">builder output stops here</text>
  <rect x="836.0" y="700.0" width="308.0" height="64.0" rx="10.0" fill="#0f172a" stroke="#eab308" stroke-width="1.8"/>
  <text x="990.0" y="732.0" text-anchor="middle" class="node-title">Mac Study Companion</text>
  <text x="990.0" y="754.0" text-anchor="middle" class="node-sub">McMaster MEng · Farmer + Paige · exp Dec 2026</text>
  <rect x="836.0" y="786.0" width="308.0" height="50.0" rx="10.0" fill="#052e16" stroke="#10b981" stroke-width="1.8"/>
  <text x="990.0" y="811.0" text-anchor="middle" class="node-title">RTX 3080 (10GB)</text>
  <text x="990.0" y="833.0" text-anchor="middle" class="node-sub">CUDA local inference</text>
  <rect x="836.0" y="848.0" width="148.0" height="60.0" rx="10.0" fill="#052e16" stroke="#10b981" stroke-width="1.8"/>
  <text x="910.0" y="878.0" text-anchor="middle" class="node-title">Ollama</text>
  <text x="910.0" y="900.0" text-anchor="middle" class="node-sub">qwen2.5 · bge-m3 · reranker</text>
  <rect x="996.0" y="848.0" width="148.0" height="60.0" rx="10.0" fill="#052e16" stroke="#10b981" stroke-width="1.8"/>
  <text x="1070.0" y="878.0" text-anchor="middle" class="node-title">faster-whisper</text>
  <text x="1070.0" y="900.0" text-anchor="middle" class="node-sub">large-v3</text>
  <rect x="1014.5" y="189.0" width="63" height="20" rx="6" fill="#0f172a" opacity="0.92"/>
  <text x="1046.0" y="203.0" text-anchor="middle" class="arrow-label">capture</text>
  <rect x="311.0" y="279.0" width="112" height="20" rx="6" fill="#0f172a" opacity="0.92"/>
  <text x="367.0" y="293.0" text-anchor="middle" class="arrow-label">fire claude -p</text>
  <rect x="631.5" y="267.0" width="49" height="20" rx="6" fill="#0f172a" opacity="0.92"/>
  <text x="656.0" y="281.0" text-anchor="middle" class="arrow-label">claim</text>
  <rect x="958.0" y="368.0" width="63" height="20" rx="6" fill="#0f172a" opacity="0.92"/>
  <text x="989.5" y="382.0" text-anchor="middle" class="arrow-label">enqueue</text>
  <rect x="208.0" y="642.0" width="98" height="20" rx="6" fill="#0f172a" opacity="0.92"/>
  <text x="257.0" y="656.0" text-anchor="middle" class="arrow-label">queue + stop</text>
  <rect x="326.5" y="632.0" width="49" height="20" rx="6" fill="#0f172a" opacity="0.92"/>
  <text x="351.0" y="646.0" text-anchor="middle" class="arrow-label">write</text>
  <rect x="284.0" y="420.0" width="70" height="20" rx="6" fill="#0f172a" opacity="0.92"/>
  <text x="319.0" y="434.0" text-anchor="middle" class="arrow-label">retrieve</text>
  <rect x="760.5" y="608.0" width="49" height="20" rx="6" fill="#0f172a" opacity="0.92"/>
  <text x="785.0" y="622.0" text-anchor="middle" class="arrow-label">local</text>
  <rect x="669.0" y="636.0" width="91" height="20" rx="6" fill="#0f172a" opacity="0.92"/>
  <text x="714.5" y="650.0" text-anchor="middle" class="arrow-label">VaultChange</text>
  <rect x="398.3" y="748.0" width="63" height="20" rx="6" fill="#0f172a" opacity="0.92"/>
  <text x="429.8" y="762.0" text-anchor="middle" class="arrow-label">context</text>
  <rect x="305.0" y="868.0" width="91" height="20" rx="6" fill="#0f172a" opacity="0.92"/>
  <text x="350.5" y="882.0" text-anchor="middle" class="arrow-label">embed/index</text>
  <rect x="50.0" y="932.0" width="261" height="134" rx="10" fill="rgba(15,23,42,0.92)" opacity="0.88"/>
  <line x1="60.0" y1="946.0" x2="90.0" y2="946.0" stroke="#38bdf8" stroke-width="2.3" marker-end="url(#arrowC)"/>
  <text x="100.0" y="950.0" class="legend">request / retrieval</text>
  <line x1="60.0" y1="968.0" x2="90.0" y2="968.0" stroke="#a855f7" stroke-width="2.3" marker-end="url(#arrowA)"/>
  <text x="100.0" y="972.0" class="legend">dispatch / trigger</text>
  <line x1="60.0" y1="990.0" x2="90.0" y2="990.0" stroke="#fb7185" stroke-width="2.3" marker-end="url(#arrowE)"/>
  <text x="100.0" y="994.0" class="legend">data write</text>
  <line x1="60.0" y1="1012.0" x2="90.0" y2="1012.0" stroke="#f97316" stroke-width="2.3" marker-end="url(#arrowG)"/>
  <text x="100.0" y="1016.0" class="legend">orchestrator ↔ worker loop</text>
  <line x1="60.0" y1="1034.0" x2="90.0" y2="1034.0" stroke="#f59e0b" stroke-width="2.3" marker-end="url(#arrowF)"/>
  <text x="100.0" y="1038.0" class="legend">iOS ingest (roadmap dashed)</text>
</svg>