<svg xmlns="http://www.w3.org/2000/svg" viewBox="0 0 1320 882" width="1320" height="882">
  <defs>
    <marker id="arrowA" markerWidth="10" markerHeight="7" refX="9" refY="3.5" orient="auto">
      <polygon points="0 0, 10 3.5, 0 7" fill="#a855f7"/>
    </marker>
    <marker id="arrowB" markerWidth="10" markerHeight="7" refX="9" refY="3.5" orient="auto">
      <polygon points="0 0, 10 3.5, 0 7" fill="#22c55e"/>
    </marker>
    <marker id="arrowC" markerWidth="10" markerHeight="7" refX="9" refY="3.5" orient="auto">
      <polygon points="0 0, 10 3.5, 0 7" fill="#38bdf8"/>
    </marker>
    <marker id="arrowE" markerWidth="10" markerHeight="7" refX="9" refY="3.5" orient="auto">
      <polygon points="0 0, 10 3.5, 0 7" fill="#fb7185"/>
    </marker>
    <marker id="arrowF" markerWidth="10" markerHeight="7" refX="9" refY="3.5" orient="auto">
      <polygon points="0 0, 10 3.5, 0 7" fill="#f59e0b"/>
    </marker>
    <marker id="arrowG" markerWidth="10" markerHeight="7" refX="9" refY="3.5" orient="auto">
      <polygon points="0 0, 10 3.5, 0 7" fill="#f97316"/>
    </marker>
    <marker id="arrowH" markerWidth="10" markerHeight="7" refX="9" refY="3.5" orient="auto">
      <polygon points="0 0, 10 3.5, 0 7" fill="#94a3b8"/>
    </marker>
    <linearGradient id="terminalGradient" x1="0%" y1="0%" x2="100%" y2="100%">
      <stop offset="0%" stop-color="#0f0f1a"/>
      <stop offset="100%" stop-color="#1a1a2e"/>
    </linearGradient>
    <filter id="glowBlue" x="-30%" y="-30%" width="160%" height="160%">
      <feDropShadow dx="0" dy="0" stdDeviation="5" flood-color="#3b82f6" flood-opacity="0.65"/>
    </filter>
    <filter id="glowPurple" x="-30%" y="-30%" width="160%" height="160%">
      <feDropShadow dx="0" dy="0" stdDeviation="5" flood-color="#a855f7" flood-opacity="0.72"/>
    </filter>
    <filter id="glowGreen" x="-30%" y="-30%" width="160%" height="160%">
      <feDropShadow dx="0" dy="0" stdDeviation="5" flood-color="#22c55e" flood-opacity="0.62"/>
    </filter>
    <filter id="glowOrange" x="-30%" y="-30%" width="160%" height="160%">
      <feDropShadow dx="0" dy="0" stdDeviation="5" flood-color="#f97316" flood-opacity="0.62"/>
    </filter>
    <style>
    text { font-family: 'SF Mono', 'Fira Code', Menlo, 'Microsoft YaHei', 'SimHei', monospace; }
    .title { font-size: 30px; font-weight: 700; fill: #e2e8f0; }
    .subtitle { font-size: 14px; font-weight: 500; fill: #94a3b8; }
    .section { font-size: 13px; font-weight: 700; fill: #38bdf8; letter-spacing: 1.4px; }
    .section-sub { font-size: 12px; font-weight: 500; fill: #64748b; }
    .node-title { font-size: 18px; font-weight: 700; fill: #e2e8f0; }
    .node-sub { font-size: 12px; font-weight: 500; fill: #94a3b8; }
    .node-type { font-size: 12px; font-weight: 700; fill: #64748b; letter-spacing: 0.08em; }
    .arrow-label { font-size: 12px; font-weight: 600; fill: #cbd5e1; }
    .legend { font-size: 12px; font-weight: 500; fill: #94a3b8; }
    .footnote { font-size: 12px; font-weight: 500; fill: #64748b; }
    </style>
  </defs>
  <rect width="1320.0" height="882.0" fill="url(#terminalGradient)"/>
  <circle cx="20.0" cy="20" r="5.5" fill="#ef4444"/>
  <circle cx="38.0" cy="20" r="5.5" fill="#f59e0b"/>
  <circle cx="56.0" cy="20" r="5.5" fill="#10b981"/>
  <text x="660.0" y="24" text-anchor="middle" font-size="11.0" font-weight="600" fill="#64748b">GRAND UNIFIED LIFE ARCHITECTURE · capability bands, shared services drawn once</text>
  <text x="1292.0" y="24" text-anchor="end" font-size="11.0" font-weight="600" fill="#64748b">style-2-dark-terminal</text>
  <text x="660.0" y="56" text-anchor="middle" class="title">Grand Unified Life Architecture</text>
  <text x="660.0" y="82" text-anchor="middle" class="subtitle">Scan DOWN a domain to see its dependencies; scan ACROSS a band to see who shares a platform</text>
  <rect x="28.0" y="92.0" width="1264.0" height="80.0" rx="16.0" fill="rgba(15,23,42,0.10)" stroke="#475569" stroke-width="1.4" stroke-dasharray="7 6"/>
  <text x="46.0" y="116.0" class="section">DOMAINS</text>
  <rect x="28.0" y="196.0" width="1264.0" height="92.0" rx="16.0" fill="rgba(30,27,75,0.18)" stroke="#a855f7" stroke-width="1.4" stroke-dasharray="7 6"/>
  <text x="46.0" y="220.0" class="section">INTELLIGENCE</text>
  <rect x="28.0" y="312.0" width="1264.0" height="84.0" rx="16.0" fill="rgba(60,50,0,0.16)" stroke="#eab308" stroke-width="1.4" stroke-dasharray="7 6"/>
  <text x="46.0" y="336.0" class="section">MESSAGING / ASYNC</text>
  <rect x="28.0" y="420.0" width="1264.0" height="84.0" rx="16.0" fill="rgba(60,30,0,0.16)" stroke="#f97316" stroke-width="1.4" stroke-dasharray="7 6"/>
  <text x="46.0" y="444.0" class="section">COMMS / EXTERNAL</text>
  <rect x="28.0" y="528.0" width="1264.0" height="116.0" rx="16.0" fill="rgba(5,46,22,0.18)" stroke="#10b981" stroke-width="1.4" stroke-dasharray="7 6"/>
  <text x="46.0" y="552.0" class="section">DATA / STORAGE</text>
  <rect x="28.0" y="668.0" width="1264.0" height="84.0" rx="16.0" fill="rgba(15,40,80,0.16)" stroke="#3b82f6" stroke-width="1.4" stroke-dasharray="7 6"/>
  <text x="46.0" y="692.0" class="section">OBSERVABILITY</text>
  <rect x="28.0" y="776.0" width="1264.0" height="80.0" rx="16.0" fill="rgba(15,23,42,0.12)" stroke="#64748b" stroke-width="1.4" stroke-dasharray="7 6"/>
  <text x="46.0" y="800.0" class="section">RUNTIME / TRANSPORT</text>
  <path d="M 224.0,230.0 L 224.0,178.0 L 138.0,178.0 L 138.0,162.0" fill="none" stroke="#f97316" stroke-width="2.3" marker-end="url(#arrowG)"/>
  <path d="M 224.0,230.0 L 224.0,196.0 L 934.0,196.0 L 934.0,162.0" fill="none" stroke="#f97316" stroke-width="2.3" marker-end="url(#arrowG)"/>
  <path d="M 659.0,230.0 L 659.0,209.6 L 544.0,209.6 L 544.0,162.0" fill="none" stroke="#f97316" stroke-width="2.3" marker-end="url(#arrowG)"/>
  <path d="M 659.0,230.0 L 659.0,178.0 L 732.0,178.0 L 732.0,162.0" fill="none" stroke="#f97316" stroke-width="2.3" marker-end="url(#arrowG)"/>
  <path d="M 1028.0,230.0 L 1028.0,178.0 L 934.0,178.0 L 934.0,162.0" fill="none" stroke="#f97316" stroke-width="2.3" marker-end="url(#arrowG)"/>
  <path d="M 160.0,346.0 L 160.0,178.0 L 138.0,178.0 L 138.0,162.0" fill="none" stroke="#f59e0b" stroke-width="2.3" marker-end="url(#arrowF)" stroke-dasharray="6,4"/>
  <path d="M 362.0,346.0 L 362.0,178.0 L 138.0,178.0 L 138.0,162.0" fill="none" stroke="#f59e0b" stroke-width="2.3" marker-end="url(#arrowF)" stroke-dasharray="6,4"/>
  <path d="M 556.0,346.0 L 556.0,178.0 L 346.0,178.0 L 346.0,162.0" fill="none" stroke="#f59e0b" stroke-width="2.3" marker-end="url(#arrowF)" stroke-dasharray="6,4"/>
  <path d="M 744.0,346.0 L 744.0,178.0 L 732.0,178.0 L 732.0,162.0" fill="none" stroke="#f59e0b" stroke-width="2.3" marker-end="url(#arrowF)" stroke-dasharray="6,4"/>
  <path d="M 940.0,346.0 L 940.0,178.0 L 934.0,178.0 L 934.0,162.0" fill="none" stroke="#f59e0b" stroke-width="2.3" marker-end="url(#arrowF)" stroke-dasharray="6,4"/>
  <path d="M 210.0,454.0 L 210.0,433.6 L 346.0,433.6 L 346.0,162.0" fill="none" stroke="#a855f7" stroke-width="2.3" marker-end="url(#arrowA)"/>
  <path d="M 470.0,454.0 L 470.0,178.0 L 346.0,178.0 L 346.0,162.0" fill="none" stroke="#a855f7" stroke-width="2.3" marker-end="url(#arrowA)"/>
  <path d="M 705.0,454.0 L 705.0,308.0 L 544.0,308.0 L 544.0,162.0" fill="none" stroke="#a855f7" stroke-width="2.3" marker-end="url(#arrowA)"/>
  <path d="M 924.0,454.0 L 924.0,308.0 L 544.0,308.0 L 544.0,162.0" fill="none" stroke="#a855f7" stroke-width="2.3" marker-end="url(#arrowA)"/>
  <path d="M 151.0,562.0 L 151.0,178.0 L 346.0,178.0 L 346.0,162.0" fill="none" stroke="#fb7185" stroke-width="2.3" marker-end="url(#arrowE)"/>
  <path d="M 335.0,562.0 L 335.0,178.0 L 544.0,178.0 L 544.0,162.0" fill="none" stroke="#fb7185" stroke-width="2.3" marker-end="url(#arrowE)"/>
  <path d="M 518.0,562.0 L 518.0,178.0 L 732.0,178.0 L 732.0,162.0" fill="none" stroke="#fb7185" stroke-width="2.3" marker-end="url(#arrowE)"/>
  <path d="M 694.0,562.0 L 694.0,178.0 L 732.0,178.0 L 732.0,162.0" fill="none" stroke="#fb7185" stroke-width="2.3" marker-end="url(#arrowE)"/>
  <path d="M 870.0,562.0 L 870.0,178.0 L 934.0,178.0 L 934.0,162.0" fill="none" stroke="#fb7185" stroke-width="2.3" marker-end="url(#arrowE)"/>
  <path d="M 1052.0,562.0 L 1052.0,178.0 L 934.0,178.0 L 934.0,162.0" fill="none" stroke="#fb7185" stroke-width="2.3" marker-end="url(#arrowE)"/>
  <path d="M 1221.0,562.0 L 1221.0,178.0 L 1162.0,178.0 L 1162.0,162.0" fill="none" stroke="#fb7185" stroke-width="2.3" marker-end="url(#arrowE)"/>
  <path d="M 238.0,702.0 L 238.0,681.6 L 346.0,681.6 L 346.0,162.0" fill="none" stroke="#38bdf8" stroke-width="2.3" marker-end="url(#arrowC)"/>
  <path d="M 238.0,702.0 L 238.0,664.0 L 544.0,664.0 L 544.0,162.0" fill="none" stroke="#38bdf8" stroke-width="2.3" marker-end="url(#arrowC)"/>
  <path d="M 660.0,702.0 L 660.0,522.0 L 1162.0,522.0 L 1162.0,162.0" fill="none" stroke="#38bdf8" stroke-width="2.3" marker-end="url(#arrowC)"/>
  <path d="M 1056.0,702.0 L 1056.0,178.0 L 934.0,178.0 L 934.0,162.0" fill="none" stroke="#38bdf8" stroke-width="2.3" marker-end="url(#arrowC)"/>
  <rect x="44.0" y="122.0" width="188.0" height="40.0" rx="10.0" fill="#0f172a" stroke="#94a3b8" stroke-width="1.8"/>
  <text x="138.0" y="142.0" text-anchor="middle" class="node-title">Internal Automation</text>
  <rect x="252.0" y="122.0" width="188.0" height="40.0" rx="10.0" fill="#0f172a" stroke="#94a3b8" stroke-width="1.8"/>
  <text x="346.0" y="142.0" text-anchor="middle" class="node-title">Studio Booking SaaS</text>
  <rect x="460.0" y="122.0" width="168.0" height="40.0" rx="10.0" fill="#0f172a" stroke="#94a3b8" stroke-width="1.8"/>
  <text x="544.0" y="142.0" text-anchor="middle" class="node-title">Applify</text>
  <rect x="648.0" y="122.0" width="168.0" height="40.0" rx="10.0" fill="#0f172a" stroke="#94a3b8" stroke-width="1.8"/>
  <text x="732.0" y="142.0" text-anchor="middle" class="node-title">PodcastHub</text>
  <rect x="836.0" y="122.0" width="196.0" height="40.0" rx="10.0" fill="#0f172a" stroke="#94a3b8" stroke-width="1.8"/>
  <text x="934.0" y="142.0" text-anchor="middle" class="node-title">Agentic OS + MEng</text>
  <rect x="1052.0" y="122.0" width="220.0" height="40.0" rx="10.0" fill="#0f172a" stroke="#94a3b8" stroke-width="1.8"/>
  <text x="1162.0" y="142.0" text-anchor="middle" class="node-title">CV Site (suleyman.io)</text>
  <rect x="76.0" y="230.0" width="296.0" height="50.0" rx="10.0" fill="#1e1b4b" stroke="#a855f7" stroke-width="2.0" filter="url(#glowPurple)"/>
  <rect x="82.0" y="236.0" width="284.0" height="38.0" rx="7.0" fill="none" stroke="#a855f7" stroke-width="1.2" opacity="0.65"/>
  <text x="224.0" y="255.0" text-anchor="middle" class="node-title">Claude orchestrator + agent loops</text>
  <rect x="548.0" y="230.0" width="222.0" height="50.0" rx="10.0" fill="#1e1b4b" stroke="#a855f7" stroke-width="1.8"/>
  <text x="659.0" y="255.0" text-anchor="middle" class="node-title">OpenAI GPT-5.1</text>
  <rect x="876.0" y="230.0" width="304.0" height="50.0" rx="10.0" fill="#1e1b4b" stroke="#a855f7" stroke-width="1.8"/>
  <text x="1028.0" y="255.0" text-anchor="middle" class="node-title">Ollama / Whisper (local, RTX 3080)</text>
  <rect x="76.0" y="346.0" width="168.0" height="44.0" rx="10.0" fill="#3c3200" stroke="#eab308" stroke-width="1.8"/>
  <text x="160.0" y="368.0" text-anchor="middle" class="node-title">systemd timers</text>
  <rect x="272.0" y="346.0" width="180.0" height="44.0" rx="10.0" fill="#3c3200" stroke="#eab308" stroke-width="1.8"/>
  <text x="362.0" y="368.0" text-anchor="middle" class="node-title">Gmail-label FSM</text>
  <rect x="480.0" y="346.0" width="152.0" height="44.0" rx="10.0" fill="#3c3200" stroke="#eab308" stroke-width="1.8"/>
  <text x="556.0" y="368.0" text-anchor="middle" class="node-title">Inngest</text>
  <rect x="660.0" y="346.0" width="168.0" height="44.0" rx="10.0" fill="#3c3200" stroke="#eab308" stroke-width="1.8"/>
  <text x="744.0" y="368.0" text-anchor="middle" class="node-title">RabbitMQ</text>
  <rect x="856.0" y="346.0" width="168.0" height="44.0" rx="10.0" fill="#3c3200" stroke="#eab308" stroke-width="1.8"/>
  <text x="940.0" y="368.0" text-anchor="middle" class="node-title">arq + Redis</text>
  <rect x="76.0" y="454.0" width="268.0" height="44.0" rx="10.0" fill="#3a1d00" stroke="#f97316" stroke-width="1.8"/>
  <text x="210.0" y="476.0" text-anchor="middle" class="node-title">AWS SES / SNS / KMS / AppSync</text>
  <rect x="372.0" y="454.0" width="196.0" height="44.0" rx="10.0" fill="#3a1d00" stroke="#f97316" stroke-width="1.8"/>
  <text x="470.0" y="476.0" text-anchor="middle" class="node-title">Square (booking)</text>
  <rect x="616.0" y="454.0" width="178.0" height="44.0" rx="10.0" fill="#3a1d00" stroke="#f97316" stroke-width="1.8"/>
  <text x="705.0" y="476.0" text-anchor="middle" class="node-title">Stripe (Applify)</text>
  <rect x="840.0" y="454.0" width="168.0" height="44.0" rx="10.0" fill="#3a1d00" stroke="#f97316" stroke-width="1.8"/>
  <text x="924.0" y="476.0" text-anchor="middle" class="node-title">Expo Push</text>
  <ellipse cx="151.0" cy="571.75" rx="37.5" ry="9.75" fill="#052e16" stroke="#10b981" stroke-width="2.2"/>
  <rect x="76.0" y="571.75" width="150.0" height="58.5" fill="#052e16" stroke="#10b981" stroke-width="2.2"/>
  <ellipse cx="151.0" cy="630.25" rx="37.5" ry="9.75" fill="#052e16" stroke="#10b981" stroke-width="2.2"/>
  <ellipse cx="151.0" cy="591.64" rx="37.5" ry="9.75" fill="none" stroke="#10b981" stroke-opacity="0.45" stroke-width="1.2"/>
  <ellipse cx="151.0" cy="608.8" rx="37.5" ry="9.75" fill="none" stroke="#10b981" stroke-opacity="0.25" stroke-width="1.2"/>
  <text x="151.0" y="595.0" text-anchor="middle" class="node-title">Neon Postgres</text>
  <text x="151.0" y="619.0" text-anchor="middle" class="node-sub">booking SaaS</text>
  <ellipse cx="335.0" cy="571.75" rx="37.5" ry="9.75" fill="#052e16" stroke="#10b981" stroke-width="2.2"/>
  <rect x="260.0" y="571.75" width="150.0" height="58.5" fill="#052e16" stroke="#10b981" stroke-width="2.2"/>
  <ellipse cx="335.0" cy="630.25" rx="37.5" ry="9.75" fill="#052e16" stroke="#10b981" stroke-width="2.2"/>
  <ellipse cx="335.0" cy="591.64" rx="37.5" ry="9.75" fill="none" stroke="#10b981" stroke-opacity="0.45" stroke-width="1.2"/>
  <ellipse cx="335.0" cy="608.8" rx="37.5" ry="9.75" fill="none" stroke="#10b981" stroke-opacity="0.25" stroke-width="1.2"/>
  <text x="335.0" y="595.0" text-anchor="middle" class="node-title">PostgreSQL</text>
  <text x="335.0" y="619.0" text-anchor="middle" class="node-sub">Applify / Prisma</text>
  <ellipse cx="518.0" cy="571.75" rx="36.0" ry="9.75" fill="#052e16" stroke="#10b981" stroke-width="2.2"/>
  <rect x="446.0" y="571.75" width="144.0" height="58.5" fill="#052e16" stroke="#10b981" stroke-width="2.2"/>
  <ellipse cx="518.0" cy="630.25" rx="36.0" ry="9.75" fill="#052e16" stroke="#10b981" stroke-width="2.2"/>
  <ellipse cx="518.0" cy="591.64" rx="36.0" ry="9.75" fill="none" stroke="#10b981" stroke-opacity="0.45" stroke-width="1.2"/>
  <ellipse cx="518.0" cy="608.8" rx="36.0" ry="9.75" fill="none" stroke="#10b981" stroke-opacity="0.25" stroke-width="1.2"/>
  <text x="518.0" y="595.0" text-anchor="middle" class="node-title">Self-host PG</text>
  <text x="518.0" y="619.0" text-anchor="middle" class="node-sub">PodcastHub</text>
  <ellipse cx="694.0" cy="571.75" rx="33.0" ry="9.75" fill="#052e16" stroke="#10b981" stroke-width="2.2"/>
  <rect x="628.0" y="571.75" width="132.0" height="58.5" fill="#052e16" stroke="#10b981" stroke-width="2.2"/>
  <ellipse cx="694.0" cy="630.25" rx="33.0" ry="9.75" fill="#052e16" stroke="#10b981" stroke-width="2.2"/>
  <ellipse cx="694.0" cy="591.64" rx="33.0" ry="9.75" fill="none" stroke="#10b981" stroke-opacity="0.45" stroke-width="1.2"/>
  <ellipse cx="694.0" cy="608.8" rx="33.0" ry="9.75" fill="none" stroke="#10b981" stroke-opacity="0.25" stroke-width="1.2"/>
  <text x="694.0" y="595.0" text-anchor="middle" class="node-title">MinIO</text>
  <text x="694.0" y="619.0" text-anchor="middle" class="node-sub">objects</text>
  <ellipse cx="870.0" cy="571.75" rx="35.0" ry="9.75" fill="#052e16" stroke="#10b981" stroke-width="2.2"/>
  <rect x="800.0" y="571.75" width="140.0" height="58.5" fill="#052e16" stroke="#10b981" stroke-width="2.2"/>
  <ellipse cx="870.0" cy="630.25" rx="35.0" ry="9.75" fill="#052e16" stroke="#10b981" stroke-width="2.2"/>
  <ellipse cx="870.0" cy="591.64" rx="35.0" ry="9.75" fill="none" stroke="#10b981" stroke-opacity="0.45" stroke-width="1.2"/>
  <ellipse cx="870.0" cy="608.8" rx="35.0" ry="9.75" fill="none" stroke="#10b981" stroke-opacity="0.25" stroke-width="1.2"/>
  <text x="870.0" y="595.0" text-anchor="middle" class="node-title">LanceDB</text>
  <text x="870.0" y="619.0" text-anchor="middle" class="node-sub">vectors</text>
  <ellipse cx="1052.0" cy="571.75" rx="36.0" ry="9.75" fill="#052e16" stroke="#10b981" stroke-width="2.2"/>
  <rect x="980.0" y="571.75" width="144.0" height="58.5" fill="#052e16" stroke="#10b981" stroke-width="2.2"/>
  <ellipse cx="1052.0" cy="630.25" rx="36.0" ry="9.75" fill="#052e16" stroke="#10b981" stroke-width="2.2"/>
  <ellipse cx="1052.0" cy="591.64" rx="36.0" ry="9.75" fill="none" stroke="#10b981" stroke-opacity="0.45" stroke-width="1.2"/>
  <ellipse cx="1052.0" cy="608.8" rx="36.0" ry="9.75" fill="none" stroke="#10b981" stroke-opacity="0.25" stroke-width="1.2"/>
  <text x="1052.0" y="595.0" text-anchor="middle" class="node-title">The Vault</text>
  <text x="1052.0" y="619.0" text-anchor="middle" class="node-sub">wiki</text>
  <ellipse cx="1221.0" cy="571.75" rx="29.5" ry="9.75" fill="#052e16" stroke="#10b981" stroke-width="2.2"/>
  <rect x="1162.0" y="571.75" width="118.0" height="58.5" fill="#052e16" stroke="#10b981" stroke-width="2.2"/>
  <ellipse cx="1221.0" cy="630.25" rx="29.5" ry="9.75" fill="#052e16" stroke="#10b981" stroke-width="2.2"/>
  <ellipse cx="1221.0" cy="591.64" rx="29.5" ry="9.75" fill="none" stroke="#10b981" stroke-opacity="0.45" stroke-width="1.2"/>
  <ellipse cx="1221.0" cy="608.8" rx="29.5" ry="9.75" fill="none" stroke="#10b981" stroke-opacity="0.25" stroke-width="1.2"/>
  <text x="1221.0" y="595.0" text-anchor="middle" class="node-title">Vercel Blob</text>
  <text x="1221.0" y="619.0" text-anchor="middle" class="node-sub">assets</text>
  <rect x="140.0" y="702.0" width="196.0" height="44.0" rx="10.0" fill="#0f2850" stroke="#3b82f6" stroke-width="1.8"/>
  <text x="238.0" y="724.0" text-anchor="middle" class="node-title">Sentry</text>
  <rect x="540.0" y="702.0" width="240.0" height="44.0" rx="10.0" fill="#0f2850" stroke="#3b82f6" stroke-width="1.8"/>
  <text x="660.0" y="724.0" text-anchor="middle" class="node-title">Vercel Analytics</text>
  <rect x="916.0" y="702.0" width="280.0" height="44.0" rx="10.0" fill="#0f2850" stroke="#3b82f6" stroke-width="1.8"/>
  <text x="1056.0" y="724.0" text-anchor="middle" class="node-title">night-briefing self-check</text>
  <rect x="140.0" y="808.0" width="168.0" height="40.0" rx="10.0" fill="#0f172a" stroke="#94a3b8" stroke-width="1.8"/>
  <text x="224.0" y="828.0" text-anchor="middle" class="node-title">Vercel</text>
  <rect x="400.0" y="808.0" width="196.0" height="40.0" rx="10.0" fill="#0f172a" stroke="#94a3b8" stroke-width="1.8"/>
  <text x="498.0" y="828.0" text-anchor="middle" class="node-title">Docker Compose</text>
  <rect x="688.0" y="808.0" width="168.0" height="40.0" rx="10.0" fill="#0f172a" stroke="#94a3b8" stroke-width="1.8"/>
  <text x="772.0" y="828.0" text-anchor="middle" class="node-title">Tailscale</text>
  <rect x="964.0" y="808.0" width="140.0" height="40.0" rx="10.0" fill="#0f172a" stroke="#94a3b8" stroke-width="1.8"/>
  <text x="1034.0" y="828.0" text-anchor="middle" class="node-title">uv</text>
  <rect x="1052.0" y="768.0" width="247" height="134" rx="10" fill="rgba(15,23,42,0.82)" opacity="0.88"/>
  <line x1="1062.0" y1="782.0" x2="1092.0" y2="782.0" stroke="#f97316" stroke-width="2.3" marker-end="url(#arrowG)"/>
  <text x="1102.0" y="786.0" class="legend">AI / model dependency</text>
  <line x1="1062.0" y1="804.0" x2="1092.0" y2="804.0" stroke="#f59e0b" stroke-width="2.3" marker-end="url(#arrowF)"/>
  <text x="1102.0" y="808.0" class="legend">async / event trigger</text>
  <line x1="1062.0" y1="826.0" x2="1092.0" y2="826.0" stroke="#a855f7" stroke-width="2.3" marker-end="url(#arrowA)"/>
  <text x="1102.0" y="830.0" class="legend">external comms / payments</text>
  <line x1="1062.0" y1="848.0" x2="1092.0" y2="848.0" stroke="#fb7185" stroke-width="2.3" marker-end="url(#arrowE)"/>
  <text x="1102.0" y="852.0" class="legend">data / storage</text>
  <line x1="1062.0" y1="870.0" x2="1092.0" y2="870.0" stroke="#38bdf8" stroke-width="2.3" marker-end="url(#arrowC)"/>
  <text x="1102.0" y="874.0" class="legend">observability</text>
  <text x="42.0" y="866.0" class="footnote">Each platform drawn once; thin connectors run UP to the domains that use it</text>
</svg>